<svg width="394" height="127" viewBox="0 0 394 127" fill="none" xmlns="http://www.w3.org/2000/svg">
<path d="M4.25635 34.4415H33.1917V26.4985H4.25635V34.4415ZM54.6731 100.728H63.5617L45.1225 28.7679H36.3284L54.6731 100.728ZM69.8536 106.307H114.391V98.175H69.8536V106.307ZM141.668 106.685L148.193 100.161C138.264 92.3123 131.078 80.6814 131.078 64.2279C131.078 47.7745 138.264 36.2382 148.193 28.2951L141.668 21.7705C130.51 30.0918 121.527 44.3703 121.527 64.2279C121.527 84.0855 130.51 98.3641 141.668 106.685ZM192.932 24.891L185.651 27.3495C188.015 32.2667 193.405 46.9235 194.917 52.3134L202.293 49.7603C200.686 44.4649 195.012 29.4299 192.932 24.891ZM234.916 30.9428L226.217 28.4843C224.326 42.6683 218.557 57.7979 211.087 67.3484C201.537 79.4521 187.447 88.5299 173.925 92.5014L180.45 99.1206C193.783 94.3926 207.778 84.6529 217.517 71.7927C225.271 61.5803 230.377 48.0582 233.214 36.3327C233.593 34.8198 234.254 32.5503 234.916 30.9428ZM166.549 30.5646L159.079 33.3068C161.349 37.3729 167.873 53.3535 169.67 59.2163L177.14 56.474C174.965 50.3276 169.008 35.8599 166.549 30.5646ZM252.41 106.685C263.663 98.3641 272.551 84.0855 272.551 64.2279C272.551 44.3703 263.663 30.0918 252.41 21.7705L245.885 28.2951C255.909 36.2382 263.001 47.7745 263.001 64.2279C263.001 80.6814 255.909 92.3123 245.885 100.161L252.41 106.685ZM279.655 106.307H324.193V98.175H279.655V106.307ZM330.666 100.728H339.555L357.616 28.7679H348.917L330.666 100.728ZM364.574 34.4415H393.51V26.4985H364.574V34.4415Z" fill="#ED1164"/>
</svg>
