<?xml version="1.0" encoding="utf-8"?>
<!-- Generator: Adobe Illustrator 21.0.0, SVG Export Plug-In . SVG Version: 6.00 Build 0)  -->
<svg version="1.1" xmlns="http://www.w3.org/2000/svg" xmlns:xlink="http://www.w3.org/1999/xlink" x="0px" y="0px"
	 viewBox="0 0 1400 980" style="enable-background:new 0 0 1400 980;" xml:space="preserve">
<style type="text/css">
	.st0{fill:#F6DA69;}
	.st1{fill:#FFFFFF;}
	.st2{fill:#F16A44;}
	.st3{fill:#131313;}
	.st4{fill:#019D92;}
	.st5{fill:#FFB9A0;}
	.st6{fill:#FFDE17;}
	.st7{fill:#ED1C24;}
</style>
<g id="Background">
	<g>
		<rect class="st0" width="1400" height="980"/>
		<polygon class="st1" points="1400,16 894.7,148.9 932.9,38.6 801.6,131.6 829.1,0 749,0 693.6,116.6 630.9,0 514.1,0 539.8,124 
			327.1,0 295,0 415.1,169 0,76.7 0,112.4 355.2,288.4 46.1,314 355.2,398.6 211.6,478.3 371.8,472.1 112.2,669.5 458.6,593.6 
			252.1,885.5 436.7,780.3 841.5,649.1 1368.1,818.8 1008.4,526.1 1305.4,508.8 1062.3,412.4 1174.7,377.8 1019.7,355.5 
			1360.6,238.3 988.6,262.8 1400,19.6 		"/>
		<g>
			<path class="st2" d="M304.6,427.6c0-0.3,0-0.6-0.1-0.8l-8.9,4.9c1,0.8,2.2,1.3,3.5,1.3C302.2,433,304.6,430.6,304.6,427.6z"/>
			<circle class="st2" cx="323.2" cy="554.2" r="5.4"/>
			<circle class="st2" cx="371.4" cy="457.9" r="5.4"/>
			<path class="st2" d="M249.3,476.8l3-0.1c-0.4-0.1-0.8-0.2-1.3-0.2C250.4,476.6,249.9,476.7,249.3,476.8z"/>
			<circle class="st2" cx="371.4" cy="554.2" r="5.4"/>
			<circle class="st2" cx="371.4" cy="506.1" r="5.4"/>
			<circle class="st2" cx="371.4" cy="602.3" r="5.4"/>
			<circle class="st2" cx="275.1" cy="457.9" r="5.4"/>
			<circle class="st2" cx="323.2" cy="307.2" r="5.4"/>
			<circle class="st2" cx="347.3" cy="379.4" r="5.4"/>
			<circle class="st2" cx="323.2" cy="457.9" r="5.4"/>
			<circle class="st2" cx="347.3" cy="331.3" r="5.4"/>
			<circle class="st2" cx="347.3" cy="427.6" r="5.4"/>
			<circle class="st2" cx="299.2" cy="331.3" r="5.4"/>
			<circle class="st2" cx="323.2" cy="355.4" r="5.4"/>
			<circle class="st2" cx="371.4" cy="210.9" r="5.4"/>
			<circle class="st2" cx="299.2" cy="186.8" r="5.4"/>
			<path class="st2" d="M178.8,312.6c3,0,5.4-2.4,5.4-5.4c0-1.8-0.9-3.5-2.3-4.5l-6.8,0.6c-1,1-1.7,2.4-1.7,3.9
				C173.4,310.2,175.8,312.6,178.8,312.6z"/>
			<path class="st2" d="M352.7,283.1c0-3-2.4-5.4-5.4-5.4c-2.6,0-4.7,1.8-5.3,4.2l9.5,4.7C352.3,285.6,352.7,284.4,352.7,283.1z"/>
			<circle class="st2" cx="299.2" cy="235" r="5.4"/>
			<circle class="st2" cx="251" cy="138.7" r="5.4"/>
			<path class="st2" d="M256.4,235c0-3-2.4-5.4-5.4-5.4c-2.7,0-4.9,2-5.3,4.6l9.3,4.6C255.9,237.8,256.4,236.4,256.4,235z"/>
			<circle class="st2" cx="154.7" cy="138.7" r="5.4"/>
			<path class="st2" d="M160.1,186.8c0-3-2.4-5.4-5.4-5.4c-2.8,0-5.2,2.2-5.4,5l9,4.5C159.4,189.9,160.1,188.4,160.1,186.8z"/>
			<circle class="st2" cx="371.4" cy="259.1" r="5.4"/>
			<circle class="st2" cx="371.4" cy="403.5" r="5.4"/>
			<circle class="st2" cx="371.4" cy="307.2" r="5.4"/>
			<circle class="st2" cx="371.4" cy="355.4" r="5.4"/>
			<circle class="st2" cx="323.2" cy="259.1" r="5.4"/>
			<circle class="st2" cx="323.2" cy="162.8" r="5.4"/>
			<circle class="st2" cx="323.2" cy="210.9" r="5.4"/>
			<circle class="st2" cx="347.3" cy="186.8" r="5.4"/>
			<circle class="st2" cx="251" cy="186.8" r="5.4"/>
			<circle class="st2" cx="419.5" cy="506.1" r="5.4"/>
			<circle class="st2" cx="395.5" cy="186.8" r="5.4"/>
			<circle class="st2" cx="419.5" cy="307.2" r="5.4"/>
			<circle class="st2" cx="419.5" cy="554.2" r="5.4"/>
			<circle class="st2" cx="419.5" cy="355.4" r="5.4"/>
			<circle class="st2" cx="419.5" cy="457.9" r="5.4"/>
			<circle class="st2" cx="395.5" cy="283.1" r="5.4"/>
			<circle class="st2" cx="419.5" cy="403.5" r="5.4"/>
			<circle class="st2" cx="395.5" cy="235" r="5.4"/>
			<circle class="st2" cx="395.5" cy="578.3" r="5.4"/>
			<circle class="st2" cx="395.5" cy="530.1" r="5.4"/>
			<circle class="st2" cx="419.5" cy="162.8" r="5.4"/>
			<circle class="st2" cx="395.5" cy="379.4" r="5.4"/>
			<circle class="st2" cx="395.5" cy="331.3" r="5.4"/>
			<circle class="st2" cx="395.5" cy="427.6" r="5.4"/>
			<circle class="st2" cx="395.5" cy="482" r="5.4"/>
			<circle class="st2" cx="347.3" cy="530.1" r="5.4"/>
			<circle class="st2" cx="275.1" cy="307.2" r="5.4"/>
			<circle class="st2" cx="275.1" cy="355.4" r="5.4"/>
			<path class="st2" d="M323.2,511.5c3,0,5.4-2.4,5.4-5.4c0-0.4,0-0.7-0.1-1.1l-7.8,5.9C321.5,511.3,322.4,511.5,323.2,511.5z"/>
			<circle class="st2" cx="419.5" cy="66.5" r="5.4"/>
			<circle class="st2" cx="251" cy="331.3" r="5.4"/>
			<circle class="st2" cx="227" cy="307.2" r="5.4"/>
			<circle class="st2" cx="202.9" cy="331.3" r="5.4"/>
			<circle class="st2" cx="227" cy="355.4" r="5.4"/>
			<path class="st2" d="M376.8,114.6c0-2.5-1.7-4.6-4.1-5.2l4,5.7C376.8,114.9,376.8,114.8,376.8,114.6z"/>
			<circle class="st2" cx="395.5" cy="90.6" r="5.4"/>
			<path class="st2" d="M400.9,138.7c0-3-2.4-5.4-5.4-5.4c-1.7,0-3.3,0.8-4.3,2.1l6,8.5C399.3,143.1,400.9,141.1,400.9,138.7z"/>
			<circle class="st2" cx="419.5" cy="210.9" r="5.4"/>
			<circle class="st2" cx="347.3" cy="235" r="5.4"/>
			<path class="st2" d="M366,162.8c0,3,2.4,5.4,5.4,5.4s5.4-2.4,5.4-5.4c0-0.9-0.2-1.7-0.6-2.4l-8.2-1.8
				C366.8,159.5,366,161,366,162.8z"/>
			<circle class="st2" cx="371.4" cy="66.5" r="5.4"/>
			<circle class="st2" cx="419.5" cy="259.1" r="5.4"/>
			<circle class="st2" cx="347.3" cy="578.3" r="5.4"/>
			<circle class="st2" cx="688" cy="331.3" r="5.4"/>
			<circle class="st2" cx="688" cy="235" r="5.4"/>
			<circle class="st2" cx="688" cy="427.6" r="5.4"/>
			<circle class="st2" cx="688" cy="379.4" r="5.4"/>
			<circle class="st2" cx="688" cy="283.1" r="5.4"/>
			<circle class="st2" cx="663.9" cy="650.5" r="5.4"/>
			<circle class="st2" cx="663.9" cy="698.6" r="5.4"/>
			<circle class="st2" cx="688" cy="186.8" r="5.4"/>
			<circle class="st2" cx="688" cy="138.7" r="5.4"/>
			<circle class="st2" cx="688" cy="626.4" r="5.4"/>
			<circle class="st2" cx="688" cy="482" r="5.4"/>
			<circle class="st2" cx="443.6" cy="626.4" r="5.4"/>
			<circle class="st2" cx="443.6" cy="770.9" r="5.4"/>
			<circle class="st2" cx="688" cy="674.6" r="5.4"/>
			<circle class="st2" cx="688" cy="530.1" r="5.4"/>
			<circle class="st2" cx="688" cy="578.3" r="5.4"/>
			<circle class="st2" cx="663.9" cy="114.6" r="5.4"/>
			<path class="st2" d="M304.6,379.4c0-3-2.4-5.4-5.4-5.4s-5.4,2.4-5.4,5.4c0,0.9,0.2,1.8,0.6,2.5l7.6,2.1
				C303.6,383.1,304.6,381.4,304.6,379.4z"/>
			<circle class="st2" cx="443.6" cy="722.7" r="5.4"/>
			<circle class="st2" cx="639.8" cy="578.3" r="5.4"/>
			<circle class="st2" cx="663.9" cy="162.8" r="5.4"/>
			<circle class="st2" cx="639.8" cy="626.4" r="5.4"/>
			<circle class="st2" cx="639.8" cy="482" r="5.4"/>
			<circle class="st2" cx="663.9" cy="210.9" r="5.4"/>
			<circle class="st2" cx="639.8" cy="530.1" r="5.4"/>
			<circle class="st2" cx="663.9" cy="307.2" r="5.4"/>
			<circle class="st2" cx="663.9" cy="457.9" r="5.4"/>
			<circle class="st2" cx="663.9" cy="506.1" r="5.4"/>
			<circle class="st2" cx="663.9" cy="554.2" r="5.4"/>
			<circle class="st2" cx="663.9" cy="355.4" r="5.4"/>
			<circle class="st2" cx="663.9" cy="602.3" r="5.4"/>
			<circle class="st2" cx="663.9" cy="259.1" r="5.4"/>
			<circle class="st2" cx="663.9" cy="403.5" r="5.4"/>
			<path class="st2" d="M658.5,66.5c0,3,2.4,5.4,5.4,5.4c1.8,0,3.4-0.9,4.4-2.3l-4.6-8.5C660.8,61.2,658.5,63.5,658.5,66.5z"/>
			<circle class="st2" cx="443.6" cy="331.3" r="5.4"/>
			<circle class="st2" cx="443.6" cy="283.1" r="5.4"/>
			<circle class="st2" cx="443.6" cy="138.7" r="5.4"/>
			<circle class="st2" cx="443.6" cy="235" r="5.4"/>
			<circle class="st2" cx="443.6" cy="379.4" r="5.4"/>
			<circle class="st2" cx="443.6" cy="530.1" r="5.4"/>
			<circle class="st2" cx="443.6" cy="482" r="5.4"/>
			<circle class="st2" cx="443.6" cy="427.6" r="5.4"/>
			<path class="st2" d="M400.8,675.3l-2.9,4.1C399.5,678.6,400.6,677.1,400.8,675.3z"/>
			<circle class="st2" cx="299.2" cy="578.3" r="5.4"/>
			<path class="st2" d="M299.2,535.5c3,0,5.4-2.4,5.4-5.4c0-2.1-1.1-3.8-2.8-4.8l-7.9,6C294.5,533.7,296.6,535.5,299.2,535.5z"/>
			<circle class="st2" cx="395.5" cy="722.7" r="5.4"/>
			<circle class="st2" cx="395.5" cy="770.9" r="5.4"/>
			<path class="st2" d="M419.5,596.9c-3,0-5.4,2.4-5.4,5.4c0,0.3,0,0.7,0.1,1l10.6-2.3C424.2,598.7,422.1,596.9,419.5,596.9z"/>
			<circle class="st2" cx="443.6" cy="186.8" r="5.4"/>
			<circle class="st2" cx="443.6" cy="578.3" r="5.4"/>
			<path class="st2" d="M178.8,349.9c-0.3,0-0.7,0-1,0.1l4.6,1.3C181.4,350.5,180.2,349.9,178.8,349.9z"/>
			<circle class="st2" cx="443.6" cy="674.6" r="5.4"/>
			<circle class="st2" cx="443.6" cy="90.6" r="5.4"/>
			<path class="st2" d="M106.6,325.9c-2.2,0-4.2,1.4-5,3.3l10.4,2.8c0-0.2,0.1-0.5,0.1-0.7C112,328.3,109.6,325.9,106.6,325.9z"/>
			<path class="st2" d="M178.8,645.1c-3,0-5.4,2.4-5.4,5.4c0,2.2,1.3,4.1,3.2,4.9l6.3-1.4c0.8-1,1.3-2.2,1.3-3.5
				C184.2,647.5,181.8,645.1,178.8,645.1z"/>
			<path class="st2" d="M304.6,626.4c0-3-2.4-5.4-5.4-5.4s-5.4,2.4-5.4,5.4c0,1.2,0.4,2.2,1,3.1l9.7-2.1
				C304.6,627.1,304.6,626.8,304.6,626.4z"/>
			<path class="st2" d="M414.5,792.9l5.8-3.3c-0.3,0-0.5-0.1-0.8-0.1C417.3,789.5,415.3,790.9,414.5,792.9z"/>
			<path class="st2" d="M86.7,310.6l-7.8,0.6c1,0.8,2.2,1.3,3.6,1.3C84.2,312.6,85.7,311.9,86.7,310.6z"/>
			<path class="st2" d="M323.2,837.7c-3,0-5.4,2.4-5.4,5.4c0,1.6,0.7,3,1.7,4l9-5.1C328,839.5,325.8,837.7,323.2,837.7z"/>
			<path class="st2" d="M136,651.4l-5.8,4.4c0.2,0,0.3,0,0.5,0C133.3,655.9,135.5,654,136,651.4z"/>
			<path class="st2" d="M178.8,120c1.9,0,3.6-1,4.6-2.6l-10-2.2C173.7,117.9,176,120,178.8,120z"/>
			<path class="st2" d="M299.2,144.1c0.8,0,1.5-0.2,2.1-0.4l-6.2-1.4C296.1,143.4,297.6,144.1,299.2,144.1z"/>
			<path class="st2" d="M390.1,42.4c0,3,2.4,5.4,5.4,5.4c2.8,0,5.1-2.1,5.4-4.8l-8.6-5C390.9,39,390.1,40.6,390.1,42.4z"/>
			<path class="st2" d="M63.9,138.7c0-3-2.4-5.4-5.4-5.4s-5.4,2.4-5.4,5.4c0,0,0,0,0,0l8.7,4.3C63,142,63.9,140.5,63.9,138.7z"/>
			<circle class="st2" cx="10.3" cy="90.6" r="5.4"/>
			<path class="st2" d="M58.4,96c2.9,0,5.2-2.2,5.4-5.1l-10.4-2.3c-0.2,0.6-0.4,1.3-0.4,2C53,93.5,55.4,96,58.4,96z"/>
			<circle class="st2" cx="34.4" cy="114.6" r="5.4"/>
			<circle class="st2" cx="227" cy="210.9" r="5.4"/>
			<circle class="st2" cx="519.4" cy="746.8" r="5.4"/>
			<circle class="st2" cx="567.6" cy="210.9" r="5.4"/>
			<circle class="st2" cx="567.6" cy="259.1" r="5.4"/>
			<circle class="st2" cx="567.6" cy="114.6" r="5.4"/>
			<circle class="st2" cx="519.4" cy="698.6" r="5.4"/>
			<circle class="st2" cx="567.6" cy="307.2" r="5.4"/>
			<circle class="st2" cx="567.6" cy="66.5" r="5.4"/>
			<circle class="st2" cx="567.6" cy="18.3" r="5.4"/>
			<circle class="st2" cx="567.6" cy="162.8" r="5.4"/>
			<circle class="st2" cx="567.6" cy="554.2" r="5.4"/>
			<circle class="st2" cx="567.6" cy="602.3" r="5.4"/>
			<circle class="st2" cx="567.6" cy="698.6" r="5.4"/>
			<circle class="st2" cx="567.6" cy="506.1" r="5.4"/>
			<circle class="st2" cx="567.6" cy="355.4" r="5.4"/>
			<circle class="st2" cx="567.6" cy="403.5" r="5.4"/>
			<circle class="st2" cx="567.6" cy="457.9" r="5.4"/>
			<circle class="st2" cx="519.4" cy="602.3" r="5.4"/>
			<circle class="st2" cx="543.5" cy="530.1" r="5.4"/>
			<circle class="st2" cx="543.5" cy="674.6" r="5.4"/>
			<path class="st2" d="M524.9,18.3c0-3-2.4-5.4-5.4-5.4c-0.9,0-1.8,0.2-2.6,0.6l2.1,10.2c0.2,0,0.3,0,0.5,0
				C522.4,23.7,524.9,21.3,524.9,18.3z"/>
			<circle class="st2" cx="519.4" cy="210.9" r="5.4"/>
			<circle class="st2" cx="543.5" cy="722.7" r="5.4"/>
			<circle class="st2" cx="543.5" cy="578.3" r="5.4"/>
			<circle class="st2" cx="543.5" cy="626.4" r="5.4"/>
			<circle class="st2" cx="519.4" cy="259.1" r="5.4"/>
			<circle class="st2" cx="519.4" cy="506.1" r="5.4"/>
			<circle class="st2" cx="519.4" cy="554.2" r="5.4"/>
			<circle class="st2" cx="519.4" cy="307.2" r="5.4"/>
			<circle class="st2" cx="567.6" cy="650.5" r="5.4"/>
			<circle class="st2" cx="519.4" cy="650.5" r="5.4"/>
			<circle class="st2" cx="519.4" cy="457.9" r="5.4"/>
			<circle class="st2" cx="519.4" cy="355.4" r="5.4"/>
			<circle class="st2" cx="519.4" cy="403.5" r="5.4"/>
			<circle class="st2" cx="519.4" cy="162.8" r="5.4"/>
			<circle class="st2" cx="615.7" cy="355.4" r="5.4"/>
			<circle class="st2" cx="615.7" cy="403.5" r="5.4"/>
			<circle class="st2" cx="615.7" cy="457.9" r="5.4"/>
			<circle class="st2" cx="615.7" cy="307.2" r="5.4"/>
			<circle class="st2" cx="615.7" cy="210.9" r="5.4"/>
			<circle class="st2" cx="615.7" cy="162.8" r="5.4"/>
			<circle class="st2" cx="615.7" cy="506.1" r="5.4"/>
			<circle class="st2" cx="615.7" cy="259.1" r="5.4"/>
			<circle class="st2" cx="615.7" cy="554.2" r="5.4"/>
			<path class="st2" d="M861.9,650.5c0-3-2.4-5.4-5.4-5.4s-5.4,2.4-5.4,5.4c0,0.6,0.1,1.2,0.3,1.8l8.2,2.6
				C861,653.9,861.9,652.3,861.9,650.5z"/>
			<path class="st2" d="M1389.7,23.7c3,0,5.4-2.4,5.4-5.4c0-0.3,0-0.7-0.1-1l-10.4,2.7C1385.3,22.2,1387.3,23.7,1389.7,23.7z"/>
			<circle class="st2" cx="615.7" cy="114.6" r="5.4"/>
			<path class="st2" d="M419.5,655.9c3,0,5.4-2.4,5.4-5.4c0-2.2-1.3-4-3.1-4.9l-6.2,8.7C416.7,655.3,418,655.9,419.5,655.9z"/>
			<circle class="st2" cx="615.7" cy="650.5" r="5.4"/>
			<circle class="st2" cx="615.7" cy="602.3" r="5.4"/>
			<circle class="st2" cx="615.7" cy="698.6" r="5.4"/>
			<circle class="st2" cx="615.7" cy="18.3" r="5.4"/>
			<circle class="st2" cx="591.7" cy="283.1" r="5.4"/>
			<circle class="st2" cx="591.7" cy="427.6" r="5.4"/>
			<circle class="st2" cx="615.7" cy="66.5" r="5.4"/>
			<circle class="st2" cx="591.7" cy="379.4" r="5.4"/>
			<circle class="st2" cx="419.5" cy="114.6" r="5.4"/>
			<circle class="st2" cx="591.7" cy="90.6" r="5.4"/>
			<circle class="st2" cx="591.7" cy="186.8" r="5.4"/>
			<circle class="st2" cx="591.7" cy="138.7" r="5.4"/>
			<circle class="st2" cx="591.7" cy="235" r="5.4"/>
			<circle class="st2" cx="591.7" cy="674.6" r="5.4"/>
			<circle class="st2" cx="591.7" cy="42.4" r="5.4"/>
			<circle class="st2" cx="591.7" cy="722.7" r="5.4"/>
			<circle class="st2" cx="591.7" cy="626.4" r="5.4"/>
			<circle class="st2" cx="591.7" cy="530.1" r="5.4"/>
			<circle class="st2" cx="591.7" cy="482" r="5.4"/>
			<circle class="st2" cx="591.7" cy="578.3" r="5.4"/>
			<circle class="st2" cx="591.7" cy="331.3" r="5.4"/>
			<circle class="st2" cx="471.3" cy="259.1" r="5.4"/>
			<circle class="st2" cx="323.2" cy="794.9" r="5.4"/>
			<path class="st2" d="M299.2,824.4c3,0,5.4-2.4,5.4-5.4c0-1.8-0.9-3.4-2.3-4.4l-6.3,8.8C296.9,824.1,298,824.4,299.2,824.4z"/>
			<circle class="st2" cx="347.3" cy="819" r="5.4"/>
			<circle class="st2" cx="275.1" cy="602.3" r="5.4"/>
			<circle class="st2" cx="251" cy="626.4" r="5.4"/>
			<circle class="st2" cx="347.3" cy="770.9" r="5.4"/>
			<circle class="st2" cx="251" cy="578.3" r="5.4"/>
			<circle class="st2" cx="371.4" cy="794.9" r="5.4"/>
			<circle class="st2" cx="471.3" cy="162.8" r="5.4"/>
			<circle class="st2" cx="227" cy="602.3" r="5.4"/>
			<circle class="st2" cx="471.3" cy="210.9" r="5.4"/>
			<circle class="st2" cx="471.3" cy="114.6" r="5.4"/>
			<circle class="st2" cx="371.4" cy="746.8" r="5.4"/>
			<circle class="st2" cx="419.5" cy="746.8" r="5.4"/>
			<circle class="st2" cx="419.5" cy="698.6" r="5.4"/>
			<circle class="st2" cx="275.1" cy="554.2" r="5.4"/>
			<circle class="st2" cx="639.8" cy="427.6" r="5.4"/>
			<circle class="st2" cx="227" cy="162.8" r="5.4"/>
			<circle class="st2" cx="202.9" cy="138.7" r="5.4"/>
			<circle class="st2" cx="202.9" cy="626.4" r="5.4"/>
			<circle class="st2" cx="202.9" cy="186.8" r="5.4"/>
			<circle class="st2" cx="347.3" cy="42.4" r="5.4"/>
			<circle class="st2" cx="323.2" cy="18.3" r="5.4"/>
			<circle class="st2" cx="275.1" cy="162.8" r="5.4"/>
			<circle class="st2" cx="275.1" cy="210.9" r="5.4"/>
			<path class="st2" d="M130.7,312.6c3,0,5.4-2.4,5.4-5.4c0-0.2,0-0.4,0-0.7l-10.8,0.9C125.4,310.3,127.7,312.6,130.7,312.6z"/>
			<circle class="st2" cx="82.5" cy="114.6" r="5.4"/>
			<circle class="st2" cx="154.7" cy="331.3" r="5.4"/>
			<circle class="st2" cx="130.7" cy="114.6" r="5.4"/>
			<circle class="st2" cx="178.8" cy="162.8" r="5.4"/>
			<circle class="st2" cx="106.6" cy="138.7" r="5.4"/>
			<circle class="st2" cx="130.7" cy="162.8" r="5.4"/>
			<circle class="st2" cx="543.5" cy="90.6" r="5.4"/>
			<circle class="st2" cx="495.4" cy="482" r="5.4"/>
			<path class="st2" d="M514,114.6c0,3,2.4,5.4,5.4,5.4c2.8,0,5-2.1,5.4-4.7l-8.6-5C514.9,111.3,514,112.8,514,114.6z"/>
			<circle class="st2" cx="495.4" cy="722.7" r="5.4"/>
			<circle class="st2" cx="543.5" cy="482" r="5.4"/>
			<circle class="st2" cx="543.5" cy="42.4" r="5.4"/>
			<circle class="st2" cx="495.4" cy="626.4" r="5.4"/>
			<circle class="st2" cx="495.4" cy="530.1" r="5.4"/>
			<circle class="st2" cx="495.4" cy="578.3" r="5.4"/>
			<circle class="st2" cx="495.4" cy="674.6" r="5.4"/>
			<circle class="st2" cx="543.5" cy="379.4" r="5.4"/>
			<circle class="st2" cx="543.5" cy="427.6" r="5.4"/>
			<circle class="st2" cx="543.5" cy="331.3" r="5.4"/>
			<circle class="st2" cx="543.5" cy="138.7" r="5.4"/>
			<circle class="st2" cx="543.5" cy="186.8" r="5.4"/>
			<circle class="st2" cx="543.5" cy="235" r="5.4"/>
			<circle class="st2" cx="543.5" cy="283.1" r="5.4"/>
			<circle class="st2" cx="471.3" cy="746.8" r="5.4"/>
			<circle class="st2" cx="471.3" cy="554.2" r="5.4"/>
			<circle class="st2" cx="471.3" cy="602.3" r="5.4"/>
			<circle class="st2" cx="471.3" cy="650.5" r="5.4"/>
			<circle class="st2" cx="471.3" cy="506.1" r="5.4"/>
			<circle class="st2" cx="471.3" cy="355.4" r="5.4"/>
			<circle class="st2" cx="471.3" cy="307.2" r="5.4"/>
			<circle class="st2" cx="471.3" cy="457.9" r="5.4"/>
			<circle class="st2" cx="471.3" cy="403.5" r="5.4"/>
			<circle class="st2" cx="495.4" cy="138.7" r="5.4"/>
			<circle class="st2" cx="495.4" cy="331.3" r="5.4"/>
			<circle class="st2" cx="495.4" cy="283.1" r="5.4"/>
			<circle class="st2" cx="495.4" cy="379.4" r="5.4"/>
			<circle class="st2" cx="495.4" cy="427.6" r="5.4"/>
			<circle class="st2" cx="495.4" cy="235" r="5.4"/>
			<circle class="st2" cx="471.3" cy="698.6" r="5.4"/>
			<circle class="st2" cx="495.4" cy="186.8" r="5.4"/>
			<circle class="st2" cx="323.2" cy="602.3" r="5.4"/>
			<circle class="st2" cx="1124.9" cy="722.7" r="5.4"/>
			<circle class="st2" cx="1124.9" cy="674.6" r="5.4"/>
			<path class="st2" d="M1095.4,602.3c0,3,2.4,5.4,5.4,5.4c2,0,3.7-1.1,4.7-2.7l-8.3-6.8C1096.1,599.3,1095.4,600.8,1095.4,602.3z"
				/>
			<circle class="st2" cx="1100.8" cy="698.6" r="5.4"/>
			<path class="st2" d="M1315.3,775.8l-2.2-1.8C1313.7,774.8,1314.4,775.4,1315.3,775.8z"/>
			<circle class="st2" cx="1100.8" cy="650.5" r="5.4"/>
			<path class="st2" d="M1239.9,114.3l7.7-4.6c-0.7-0.3-1.5-0.5-2.3-0.5C1242.4,109.2,1240,111.5,1239.9,114.3z"/>
			<path class="st2" d="M1341.6,800.4c1.1,0,2-0.3,2.9-0.8l-7.9-6.5c-0.2,0.6-0.3,1.2-0.3,1.9
				C1336.1,797.9,1338.6,800.4,1341.6,800.4z"/>
			<circle class="st2" cx="1076.8" cy="674.6" r="5.4"/>
			<circle class="st2" cx="1004.5" cy="602.3" r="5.4"/>
			<path class="st2" d="M1004.5,264.5c2.1,0,4-1.3,4.9-3.1l-9.4,0.6C1001,263.5,1002.6,264.5,1004.5,264.5z"/>
			<circle class="st2" cx="1004.5" cy="650.5" r="5.4"/>
			<path class="st2" d="M1071.3,578.3c0,3,2.4,5.4,5.4,5.4c0.7,0,1.4-0.1,2-0.4l-7.3-5.9C1071.4,577.7,1071.3,578,1071.3,578.3z"/>
			<circle class="st2" cx="1245.3" cy="66.5" r="5.4"/>
			<circle class="st2" cx="1004.5" cy="554.2" r="5.4"/>
			<circle class="st2" cx="1076.8" cy="626.4" r="5.4"/>
			<circle class="st2" cx="980.5" cy="674.6" r="5.4"/>
			<circle class="st2" cx="980.5" cy="427.6" r="5.4"/>
			<circle class="st2" cx="1269.3" cy="90.6" r="5.4"/>
			<circle class="st2" cx="980.5" cy="530.1" r="5.4"/>
			<circle class="st2" cx="980.5" cy="482" r="5.4"/>
			<circle class="st2" cx="980.5" cy="379.4" r="5.4"/>
			<circle class="st2" cx="980.5" cy="283.1" r="5.4"/>
			<circle class="st2" cx="980.5" cy="186.8" r="5.4"/>
			<circle class="st2" cx="980.5" cy="235" r="5.4"/>
			<circle class="st2" cx="980.5" cy="331.3" r="5.4"/>
			<path class="st2" d="M1202.3,68l-9,2.4c1,0.9,2.3,1.5,3.8,1.5C1199.6,71.9,1201.7,70.3,1202.3,68z"/>
			<circle class="st2" cx="1293.4" cy="66.5" r="5.4"/>
			<path class="st2" d="M1124.9,96c3,0,5.4-2.4,5.4-5.4c0-1.2-0.4-2.4-1.1-3.3l-9.6,2.5c0,0.3-0.1,0.5-0.1,0.8
				C1119.5,93.5,1121.9,96,1124.9,96z"/>
			<path class="st2" d="M1007.2,119.3l-2.8,0.7c0,0,0,0,0.1,0C1005.5,120,1006.4,119.8,1007.2,119.3z"/>
			<path class="st2" d="M1000.1,256l3.9-2.3C1002.4,253.8,1001,254.7,1000.1,256z"/>
			<circle class="st2" cx="980.5" cy="626.4" r="5.4"/>
			<circle class="st2" cx="980.5" cy="578.3" r="5.4"/>
			<path class="st2" d="M1095.4,259.1c0,3,2.4,5.4,5.4,5.4c3,0,5.4-2.4,5.4-5.4c0-1.5-0.7-2.9-1.7-3.9l-7.9,0.5
				C1095.9,256.6,1095.4,257.8,1095.4,259.1z"/>
			<path class="st2" d="M1095.6,402.2l8.8-2.7c-1-0.8-2.2-1.4-3.6-1.4C1098.3,398.1,1096.2,399.8,1095.6,402.2z"/>
			<circle class="st2" cx="1124.9" cy="379.4" r="5.4"/>
			<circle class="st2" cx="1076.8" cy="379.4" r="5.4"/>
			<path class="st2" d="M1052.7,360.8c0.6,0,1.1-0.1,1.6-0.3l-4.7-0.7C1050.5,360.4,1051.6,360.8,1052.7,360.8z"/>
			<circle class="st2" cx="1149" cy="259.1" r="5.4"/>
			<circle class="st2" cx="1004.5" cy="162.8" r="5.4"/>
			<circle class="st2" cx="1052.7" cy="403.5" r="5.4"/>
			<circle class="st2" cx="1076.8" cy="283.1" r="5.4"/>
			<path class="st2" d="M1167.7,380l7-2.2l-6.4-0.9c-0.4,0.8-0.6,1.6-0.6,2.5C1167.6,379.6,1167.6,379.8,1167.7,380z"/>
			<circle class="st2" cx="639.8" cy="379.4" r="5.4"/>
			<circle class="st2" cx="1028.6" cy="482" r="5.4"/>
			<circle class="st2" cx="1028.6" cy="331.3" r="5.4"/>
			<circle class="st2" cx="1052.7" cy="506.1" r="5.4"/>
			<circle class="st2" cx="1052.7" cy="457.9" r="5.4"/>
			<circle class="st2" cx="1052.7" cy="307.2" r="5.4"/>
			<circle class="st2" cx="1028.6" cy="283.1" r="5.4"/>
			<path class="st2" d="M1076.8,325.9c-3,0-5.4,2.4-5.4,5.4c0,2.4,1.6,4.5,3.8,5.2l6-2.1c0.6-0.9,1-1.9,1-3.1
				C1082.2,328.3,1079.7,325.9,1076.8,325.9z"/>
			<path class="st2" d="M1124.9,181.4c-2.5,0-4.5,1.6-5.2,3.9l6.3-3.7C1125.7,181.5,1125.3,181.4,1124.9,181.4z"/>
			<circle class="st2" cx="1149" cy="114.6" r="5.4"/>
			<path class="st2" d="M1293.4,253.6c-3,0-5.4,2.4-5.4,5.4c0,1.4,0.6,2.7,1.4,3.7l9.4-3.2c0-0.2,0-0.3,0-0.5
				C1298.8,256.1,1296.4,253.6,1293.4,253.6z"/>
			<circle class="st2" cx="980.5" cy="138.7" r="5.4"/>
			<circle class="st2" cx="1124.9" cy="138.7" r="5.4"/>
			<circle class="st2" cx="1004.5" cy="210.9" r="5.4"/>
			<circle class="st2" cx="1100.8" cy="307.2" r="5.4"/>
			<circle class="st2" cx="1028.6" cy="186.8" r="5.4"/>
			<circle class="st2" cx="1028.6" cy="138.7" r="5.4"/>
			<circle class="st2" cx="1004.5" cy="403.5" r="5.4"/>
			<circle class="st2" cx="1004.5" cy="307.2" r="5.4"/>
			<circle class="st2" cx="1004.5" cy="355.4" r="5.4"/>
			<path class="st2" d="M1289.4,502.4c-0.9,1-1.4,2.2-1.4,3.6c0,1.4,0.5,2.7,1.4,3.6l8.4-0.5c0.6-0.9,1-1.9,1-3.1L1289.4,502.4z"/>
			<circle class="st2" cx="1004.5" cy="457.9" r="5.4"/>
			<path class="st2" d="M1026.8,525l2.9-0.2c-0.4-0.1-0.8-0.1-1.2-0.1C1028,524.7,1027.4,524.8,1026.8,525z"/>
			<circle class="st2" cx="1004.5" cy="506.1" r="5.4"/>
			<circle class="st2" cx="928.7" cy="331.3" r="5.4"/>
			<circle class="st2" cx="880.6" cy="138.7" r="5.4"/>
			<circle class="st2" cx="880.6" cy="235" r="5.4"/>
			<circle class="st2" cx="856.5" cy="506.1" r="5.4"/>
			<circle class="st2" cx="880.6" cy="331.3" r="5.4"/>
			<circle class="st2" cx="880.6" cy="283.1" r="5.4"/>
			<circle class="st2" cx="880.6" cy="90.6" r="5.4"/>
			<circle class="st2" cx="856.5" cy="602.3" r="5.4"/>
			<circle class="st2" cx="856.5" cy="554.2" r="5.4"/>
			<circle class="st2" cx="880.6" cy="186.8" r="5.4"/>
			<circle class="st2" cx="880.6" cy="379.4" r="5.4"/>
			<circle class="st2" cx="880.6" cy="578.3" r="5.4"/>
			<path class="st2" d="M928.7,47.8c0.4,0,0.7,0,1.1-0.1l3.1-8.8c0,0-0.1-0.1-0.1-0.1l-8.8,6.2C924.8,46.7,926.6,47.8,928.7,47.8z"
				/>
			<circle class="st2" cx="880.6" cy="626.4" r="5.4"/>
			<circle class="st2" cx="880.6" cy="530.1" r="5.4"/>
			<circle class="st2" cx="880.6" cy="427.6" r="5.4"/>
			<circle class="st2" cx="880.6" cy="482" r="5.4"/>
			<path class="st2" d="M1362.7,814.4c-0.8,0.5-1.4,1.2-1.9,2l7.2,2.3L1362.7,814.4z"/>
			<path class="st2" d="M1076.8,717.3c-3,0-5.4,2.4-5.4,5.4c0,0.1,0,0.3,0,0.4l9.5,3.1c0.8-0.9,1.3-2.2,1.3-3.5
				C1082.2,719.7,1079.7,717.3,1076.8,717.3z"/>
			<path class="st2" d="M1149,741.4c-2.9,0-5.2,2.2-5.4,5.1l10,3.2c0.5-0.8,0.8-1.8,0.8-2.9C1154.4,743.8,1152,741.4,1149,741.4z"/>
			<circle class="st2" cx="956.4" cy="602.3" r="5.4"/>
			<path class="st2" d="M1221.2,765.4c-2.6,0-4.8,1.8-5.3,4.3l10.3,3.3c0.3-0.7,0.5-1.4,0.5-2.2
				C1226.6,767.9,1224.2,765.4,1221.2,765.4z"/>
			<path class="st2" d="M934.1,674.6c0-3-2.4-5.4-5.4-5.4s-5.4,2.4-5.4,5.4c0,0.3,0,0.6,0.1,0.9l9.1,2.9
				C933.5,677.4,934.1,676.1,934.1,674.6z"/>
			<path class="st2" d="M1360.2,42.4c0,0.2,0,0.5,0.1,0.7l8.6-5.1c-0.9-0.7-2-1.1-3.2-1.1C1362.6,37,1360.2,39.4,1360.2,42.4z"/>
			<path class="st2" d="M1293.4,789.5c-2.3,0-4.3,1.5-5.1,3.5l10.3,3.3c0.1-0.5,0.2-0.9,0.2-1.4
				C1298.8,791.9,1296.4,789.5,1293.4,789.5z"/>
			<circle class="st2" cx="928.7" cy="186.8" r="5.4"/>
			<circle class="st2" cx="856.5" cy="457.9" r="5.4"/>
			<circle class="st2" cx="856.5" cy="114.6" r="5.4"/>
			<circle class="st2" cx="856.5" cy="403.5" r="5.4"/>
			<circle class="st2" cx="856.5" cy="307.2" r="5.4"/>
			<circle class="st2" cx="856.5" cy="355.4" r="5.4"/>
			<circle class="st2" cx="856.5" cy="259.1" r="5.4"/>
			<circle class="st2" cx="856.5" cy="162.8" r="5.4"/>
			<circle class="st2" cx="856.5" cy="210.9" r="5.4"/>
			<path class="st2" d="M1009.9,698.6c0-3-2.4-5.4-5.4-5.4c-3,0-5.4,2.4-5.4,5.4c0,0.4,0.1,0.9,0.2,1.3l8.8,2.8
				C1009.2,701.8,1009.9,700.3,1009.9,698.6z"/>
			<circle class="st2" cx="956.4" cy="162.8" r="5.4"/>
			<path class="st2" d="M928.7,144.1c3,0,5.4-2.4,5.4-5.4c0-0.1,0-0.1,0-0.2l-10.2,2.7C924.8,142.9,926.6,144.1,928.7,144.1z"/>
			<circle class="st2" cx="904.6" cy="602.3" r="5.4"/>
			<circle class="st2" cx="956.4" cy="210.9" r="5.4"/>
			<circle class="st2" cx="956.4" cy="259.1" r="5.4"/>
			<circle class="st2" cx="904.6" cy="506.1" r="5.4"/>
			<circle class="st2" cx="904.6" cy="457.9" r="5.4"/>
			<circle class="st2" cx="904.6" cy="650.5" r="5.4"/>
			<circle class="st2" cx="904.6" cy="554.2" r="5.4"/>
			<circle class="st2" cx="956.4" cy="506.1" r="5.4"/>
			<circle class="st2" cx="956.4" cy="554.2" r="5.4"/>
			<circle class="st2" cx="956.4" cy="650.5" r="5.4"/>
			<circle class="st2" cx="956.4" cy="355.4" r="5.4"/>
			<circle class="st2" cx="928.7" cy="235" r="5.4"/>
			<circle class="st2" cx="956.4" cy="457.9" r="5.4"/>
			<circle class="st2" cx="956.4" cy="403.5" r="5.4"/>
			<circle class="st2" cx="956.4" cy="307.2" r="5.4"/>
			<circle class="st2" cx="928.7" cy="482" r="5.4"/>
			<circle class="st2" cx="928.7" cy="427.6" r="5.4"/>
			<circle class="st2" cx="928.7" cy="578.3" r="5.4"/>
			<circle class="st2" cx="904.6" cy="403.5" r="5.4"/>
			<circle class="st2" cx="928.7" cy="530.1" r="5.4"/>
			<circle class="st2" cx="928.7" cy="283.1" r="5.4"/>
			<circle class="st2" cx="928.7" cy="379.4" r="5.4"/>
			<circle class="st2" cx="1028.6" cy="427.6" r="5.4"/>
			<circle class="st2" cx="928.7" cy="626.4" r="5.4"/>
			<circle class="st2" cx="904.6" cy="307.2" r="5.4"/>
			<circle class="st2" cx="904.6" cy="259.1" r="5.4"/>
			<circle class="st2" cx="904.6" cy="355.4" r="5.4"/>
			<path class="st2" d="M904.6,109.2c-3,0-5.4,2.4-5.4,5.4c0,3,2.4,5.4,5.4,5.4c0,0,0,0,0.1,0l3.3-9.6
				C907.1,109.7,905.9,109.2,904.6,109.2z"/>
			<circle class="st2" cx="904.6" cy="66.5" r="5.4"/>
			<circle class="st2" cx="904.6" cy="162.8" r="5.4"/>
			<circle class="st2" cx="904.6" cy="210.9" r="5.4"/>
			<circle class="st2" cx="1028.6" cy="379.4" r="5.4"/>
			<circle class="st2" cx="784.3" cy="331.3" r="5.4"/>
			<circle class="st2" cx="784.3" cy="379.4" r="5.4"/>
			<circle class="st2" cx="784.3" cy="283.1" r="5.4"/>
			<circle class="st2" cx="784.3" cy="427.6" r="5.4"/>
			<circle class="st2" cx="784.3" cy="186.8" r="5.4"/>
			<circle class="st2" cx="784.3" cy="235" r="5.4"/>
			<circle class="st2" cx="784.3" cy="138.7" r="5.4"/>
			<circle class="st2" cx="784.3" cy="482" r="5.4"/>
			<circle class="st2" cx="784.3" cy="578.3" r="5.4"/>
			<circle class="st2" cx="808.3" cy="66.5" r="5.4"/>
			<circle class="st2" cx="712" cy="114.6" r="5.4"/>
			<circle class="st2" cx="712" cy="650.5" r="5.4"/>
			<circle class="st2" cx="784.3" cy="530.1" r="5.4"/>
			<circle class="st2" cx="808.3" cy="18.3" r="5.4"/>
			<circle class="st2" cx="784.3" cy="626.4" r="5.4"/>
			<circle class="st2" cx="784.3" cy="90.6" r="5.4"/>
			<path class="st2" d="M802.9,114.6c0,1.4,0.5,2.7,1.4,3.7l1.8-8.6C804.2,110.5,802.9,112.4,802.9,114.6z"/>
			<circle class="st2" cx="760.2" cy="162.8" r="5.4"/>
			<circle class="st2" cx="760.2" cy="259.1" r="5.4"/>
			<circle class="st2" cx="760.2" cy="210.9" r="5.4"/>
			<circle class="st2" cx="760.2" cy="66.5" r="5.4"/>
			<circle class="st2" cx="760.2" cy="114.6" r="5.4"/>
			<circle class="st2" cx="760.2" cy="18.3" r="5.4"/>
			<circle class="st2" cx="808.3" cy="210.9" r="5.4"/>
			<circle class="st2" cx="784.3" cy="42.4" r="5.4"/>
			<circle class="st2" cx="760.2" cy="650.5" r="5.4"/>
			<circle class="st2" cx="760.2" cy="506.1" r="5.4"/>
			<circle class="st2" cx="760.2" cy="307.2" r="5.4"/>
			<circle class="st2" cx="760.2" cy="554.2" r="5.4"/>
			<circle class="st2" cx="760.2" cy="602.3" r="5.4"/>
			<circle class="st2" cx="760.2" cy="355.4" r="5.4"/>
			<circle class="st2" cx="760.2" cy="457.9" r="5.4"/>
			<circle class="st2" cx="760.2" cy="403.5" r="5.4"/>
			<circle class="st2" cx="712" cy="259.1" r="5.4"/>
			<circle class="st2" cx="736.1" cy="674.6" r="5.4"/>
			<circle class="st2" cx="736.1" cy="530.1" r="5.4"/>
			<circle class="st2" cx="736.1" cy="578.3" r="5.4"/>
			<circle class="st2" cx="736.1" cy="626.4" r="5.4"/>
			<circle class="st2" cx="736.1" cy="379.4" r="5.4"/>
			<circle class="st2" cx="736.1" cy="482" r="5.4"/>
			<circle class="st2" cx="639.8" cy="674.6" r="5.4"/>
			<circle class="st2" cx="736.1" cy="427.6" r="5.4"/>
			<circle class="st2" cx="736.1" cy="331.3" r="5.4"/>
			<circle class="st2" cx="639.8" cy="283.1" r="5.4"/>
			<circle class="st2" cx="639.8" cy="235" r="5.4"/>
			<circle class="st2" cx="639.8" cy="331.3" r="5.4"/>
			<circle class="st2" cx="639.8" cy="138.7" r="5.4"/>
			<circle class="st2" cx="639.8" cy="90.6" r="5.4"/>
			<circle class="st2" cx="639.8" cy="42.4" r="5.4"/>
			<circle class="st2" cx="639.8" cy="186.8" r="5.4"/>
			<path class="st2" d="M717.5,66.5C717.5,66.4,717.4,66.4,717.5,66.5l-2.1,4.2C716.6,69.7,717.5,68.2,717.5,66.5z"/>
			<circle class="st2" cx="712" cy="355.4" r="5.4"/>
			<circle class="st2" cx="712" cy="403.5" r="5.4"/>
			<circle class="st2" cx="712" cy="457.9" r="5.4"/>
			<circle class="st2" cx="712" cy="506.1" r="5.4"/>
			<circle class="st2" cx="736.1" cy="283.1" r="5.4"/>
			<circle class="st2" cx="712" cy="210.9" r="5.4"/>
			<circle class="st2" cx="712" cy="307.2" r="5.4"/>
			<circle class="st2" cx="712" cy="602.3" r="5.4"/>
			<circle class="st2" cx="808.3" cy="162.8" r="5.4"/>
			<circle class="st2" cx="712" cy="554.2" r="5.4"/>
			<circle class="st2" cx="736.1" cy="235" r="5.4"/>
			<circle class="st2" cx="736.1" cy="138.7" r="5.4"/>
			<circle class="st2" cx="736.1" cy="186.8" r="5.4"/>
			<circle class="st2" cx="736.1" cy="90.6" r="5.4"/>
			<circle class="st2" cx="712" cy="162.8" r="5.4"/>
			<circle class="st2" cx="736.1" cy="42.4" r="5.4"/>
			<circle class="st2" cx="1124.9" cy="482" r="5.4"/>
			<path class="st2" d="M1052.7,264.5c3,0,5.4-2.4,5.4-5.4c0-0.3,0-0.6-0.1-0.9l-10.8,0.7c0,0,0,0.1,0,0.1
				C1047.3,262.1,1049.7,264.5,1052.7,264.5z"/>
			<circle class="st2" cx="1173" cy="138.7" r="5.4"/>
			<path class="st2" d="M1154.4,162.8c0-3-2.4-5.4-5.4-5.4c-3,0-5.4,2.4-5.4,5.4c0,2.9,2.3,5.2,5.1,5.4l5.2-3.1
				C1154.2,164.4,1154.4,163.6,1154.4,162.8z"/>
			<circle class="st2" cx="1100.8" cy="162.8" r="5.4"/>
			<circle class="st2" cx="1076.8" cy="138.7" r="5.4"/>
			<circle class="st2" cx="1221.2" cy="90.6" r="5.4"/>
			<circle class="st2" cx="1173" cy="90.6" r="5.4"/>
			<circle class="st2" cx="1197.1" cy="114.6" r="5.4"/>
			<circle class="st2" cx="1100.8" cy="114.6" r="5.4"/>
			<circle class="st2" cx="1028.6" cy="578.3" r="5.4"/>
			<circle class="st2" cx="1028.6" cy="674.6" r="5.4"/>
			<path class="st2" d="M1034,235c0-3-2.4-5.4-5.4-5.4s-5.4,2.4-5.4,5.4c0,2.4,1.6,4.4,3.7,5.1l7-4.1
				C1034,235.7,1034,235.3,1034,235z"/>
			<circle class="st2" cx="1052.7" cy="210.9" r="5.4"/>
			<circle class="st2" cx="1076.8" cy="186.8" r="5.4"/>
			<circle class="st2" cx="1052.7" cy="114.6" r="5.4"/>
			<circle class="st2" cx="1028.6" cy="626.4" r="5.4"/>
			<circle class="st2" cx="1052.7" cy="162.8" r="5.4"/>
			<circle class="st2" cx="808.3" cy="259.1" r="5.4"/>
			<circle class="st2" cx="1076.8" cy="482" r="5.4"/>
			<circle class="st2" cx="1149" cy="506.1" r="5.4"/>
			<circle class="st2" cx="1197.1" cy="506.1" r="5.4"/>
			<circle class="st2" cx="1173" cy="482" r="5.4"/>
			<circle class="st2" cx="1100.8" cy="457.9" r="5.4"/>
			<circle class="st2" cx="1076.8" cy="427.6" r="5.4"/>
			<circle class="st2" cx="1124.9" cy="283.1" r="5.4"/>
			<circle class="st2" cx="1100.8" cy="506.1" r="5.4"/>
			<circle class="st2" cx="1221.2" cy="482" r="5.4"/>
			<circle class="st2" cx="1197.1" cy="259.1" r="5.4"/>
			<path class="st2" d="M1154.4,307.2c0-3-2.4-5.4-5.4-5.4c-3,0-5.4,2.4-5.4,5.4c0,2,1.1,3.8,2.8,4.7l7.6-2.6
				C1154.2,308.7,1154.4,308,1154.4,307.2z"/>
			<circle class="st2" cx="1173" cy="283.1" r="5.4"/>
			<path class="st2" d="M1226.6,283.1c0-3-2.4-5.4-5.4-5.4s-5.4,2.4-5.4,5.4c0,1.7,0.8,3.2,2.1,4.2l8.6-3
				C1226.6,284,1226.6,283.6,1226.6,283.1z"/>
			<circle class="st2" cx="1245.3" cy="506.1" r="5.4"/>
			<circle class="st2" cx="1245.3" cy="259.1" r="5.4"/>
			<circle class="st2" cx="1149" cy="457.9" r="5.4"/>
			<circle class="st2" cx="832.4" cy="331.3" r="5.4"/>
			<circle class="st2" cx="832.4" cy="283.1" r="5.4"/>
			<circle class="st2" cx="832.4" cy="186.8" r="5.4"/>
			<circle class="st2" cx="832.4" cy="235" r="5.4"/>
			<circle class="st2" cx="832.4" cy="482" r="5.4"/>
			<circle class="st2" cx="808.3" cy="650.5" r="5.4"/>
			<circle class="st2" cx="832.4" cy="530.1" r="5.4"/>
			<circle class="st2" cx="832.4" cy="427.6" r="5.4"/>
			<circle class="st2" cx="832.4" cy="379.4" r="5.4"/>
			<circle class="st2" cx="808.3" cy="403.5" r="5.4"/>
			<circle class="st2" cx="808.3" cy="355.4" r="5.4"/>
			<circle class="st2" cx="808.3" cy="307.2" r="5.4"/>
			<circle class="st2" cx="808.3" cy="554.2" r="5.4"/>
			<circle class="st2" cx="808.3" cy="457.9" r="5.4"/>
			<circle class="st2" cx="808.3" cy="602.3" r="5.4"/>
			<circle class="st2" cx="808.3" cy="506.1" r="5.4"/>
			<path class="st2" d="M1317.5,47.8c3,0,5.4-2.4,5.4-5.4c0-2.4-1.6-4.4-3.7-5.1l-5.7,1.5c-0.9,1-1.4,2.2-1.4,3.6
				C1312.1,45.4,1314.5,47.8,1317.5,47.8z"/>
			<circle class="st2" cx="1149" cy="698.6" r="5.4"/>
			<circle class="st2" cx="1173" cy="722.7" r="5.4"/>
			<circle class="st2" cx="1149" cy="650.5" r="5.4"/>
			<circle class="st2" cx="1173" cy="674.6" r="5.4"/>
			<circle class="st2" cx="1197.1" cy="746.8" r="5.4"/>
			<path class="st2" d="M1124.9,621c-3,0-5.4,2.4-5.4,5.4c0,3,2.4,5.4,5.4,5.4c3,0,5.4-2.4,5.4-5.4c0-0.4-0.1-0.8-0.1-1.2l-5.1-4.2
				C1125,621,1124.9,621,1124.9,621z"/>
			<circle class="st2" cx="832.4" cy="578.3" r="5.4"/>
			<circle class="st2" cx="1052.7" cy="650.5" r="5.4"/>
			<circle class="st2" cx="1052.7" cy="698.6" r="5.4"/>
			<circle class="st2" cx="832.4" cy="138.7" r="5.4"/>
			<circle class="st2" cx="832.4" cy="626.4" r="5.4"/>
			<circle class="st2" cx="1052.7" cy="602.3" r="5.4"/>
			<circle class="st2" cx="1245.3" cy="746.8" r="5.4"/>
			<circle class="st2" cx="1221.2" cy="722.7" r="5.4"/>
			<circle class="st2" cx="1269.3" cy="770.9" r="5.4"/>
			<circle class="st2" cx="1197.1" cy="698.6" r="5.4"/>
		</g>
		<g>
			<polygon class="st3" points="282.8,0 391.9,153.6 0,66.5 0,86.9 438.3,184.4 307.4,0.1 554.2,144 524.3,0 503.9,0 525.5,104.1 
				346.9,0 			"/>
			<polygon class="st3" points="1400,5.7 910.3,134.5 952.6,12.4 816.6,108.7 839.3,0 818.9,0 786.6,154.5 913.3,64.8 879.1,163.3 
				1344.1,41.1 947.4,275.5 1286.5,253.2 977.3,359.6 1129.2,381.4 1032.1,411.3 1259.7,501.4 982.1,517.6 1320.4,792.9 
				844.5,639.6 841.5,638.6 433.6,770.8 432.6,771.1 286.3,854.5 481.6,578.4 154.3,650.1 403.1,460.9 253.2,466.7 381.5,395.4 
				103.3,319.3 391.9,295.4 0,101.3 0,123.6 318.6,281.4 0,307.8 0,311.7 328.9,401.8 170.1,489.9 340.5,483.3 70.1,689 
				435.5,608.9 218,916.5 440.7,789.5 841.5,659.6 1400,839.6 1400,831.9 1034.7,534.6 1351.2,516.1 1092.4,413.6 1220.3,374.3 
				1062.1,351.5 1400,235.3 1400,225.6 1029.8,250.1 1400,31.3 			"/>
			<polygon class="st3" points="694.1,138.7 760.1,0 738,0 693,94.5 642.3,0 619.5,0 			"/>
		</g>
	</g>
</g>
<g id="Object">
	<g>
		<path class="st4" d="M550.5,572.4c0,0-14.8,12.5-25.6,15.3c-10.8,2.8-50.1,6.2-74.5,14.8c-24.3,8.6-46.3,19.6-57.9,43
			c-11.6,23.5-14.2,42.2-14,48.6c0.2,6.5,7.3,81.3,7.3,81.3l-4.3,77.3c0,0,6.5,59.6,8.8,62.6c2.4,3,3.9,3.9,4.9,0
			c1.1-3.9,12.5-46.7,22.2-59.6c9.7-12.9,33.6-38.3,57.7-37.4s77,20.4,77,20.4l35.7,9l15.7-20c0,0,21.1-49.1,28-76.6
			c6.9-27.5,8.6-38.1,8.6-38.1l-28.3-32.1l-38.4-38.3l-8-12.3L553.9,578L550.5,572.4z"/>
		<g>
			
				<ellipse transform="matrix(0.1126 -0.9936 0.9936 0.1126 -255.5834 1070.0989)" class="st1" cx="471.3" cy="678.1" rx="4.5" ry="4.5"/>
			
				<ellipse transform="matrix(0.1126 -0.9936 0.9936 0.1126 -299.0735 1100.8929)" class="st1" cx="466.8" cy="717.9" rx="4.5" ry="4.5"/>
			
				<ellipse transform="matrix(0.1126 -0.9936 0.9936 0.1126 -311.7686 1175.1772)" class="st1" cx="502.1" cy="762.1" rx="4.5" ry="4.5"/>
			
				<ellipse transform="matrix(0.1126 -0.9936 0.9936 0.1126 -292.7256 1063.7512)" class="st1" cx="449.2" cy="695.8" rx="4.5" ry="4.5"/>
			
				<ellipse transform="matrix(0.1126 -0.9936 0.9936 0.1126 -386.0531 1162.4822)" class="st1" cx="457.8" cy="797.4" rx="4.5" ry="4.5"/>
			
				<ellipse transform="matrix(0.1126 -0.9936 0.9936 0.1126 -205.7486 1002.1575)" class="st1" cx="458.2" cy="616.3" rx="4.5" ry="4.5"/>
			
				<ellipse transform="matrix(0.1126 -0.9936 0.9936 0.1126 -355.2585 1205.9719)" class="st1" cx="497.5" cy="801.9" rx="4.5" ry="4.5"/>
			
				<ellipse transform="matrix(0.1126 -0.9936 0.9936 0.1126 -342.5633 1131.6875)" class="st1" cx="462.3" cy="757.6" rx="4.5" ry="4.5"/>
			
				<ellipse transform="matrix(0.1126 -0.9936 0.9936 0.1126 -224.7891 1113.588)" class="st1" cx="511.1" cy="682.6" rx="4.5" ry="4.5"/>
			
				<ellipse transform="matrix(0.1126 -0.9936 0.9936 0.1126 -348.9109 1168.8297)" class="st1" cx="479.9" cy="779.8" rx="4.5" ry="4.5"/>
			
				<ellipse transform="matrix(0.1126 -0.9936 0.9936 0.1126 -268.2789 1144.3827)" class="st1" cx="506.6" cy="722.4" rx="4.5" ry="4.5"/>
			
				<ellipse transform="matrix(0.1126 -0.9936 0.9936 0.1126 -212.0963 1039.2996)" class="st1" cx="475.8" cy="638.4" rx="4.5" ry="4.5"/>
			
				<ellipse transform="matrix(0.1126 -0.9936 0.9936 0.1126 -336.2154 1094.5459)" class="st1" cx="444.7" cy="735.5" rx="4.5" ry="4.5"/>
			
				<ellipse transform="matrix(0.1126 -0.9936 0.9936 0.1126 -305.4211 1138.035)" class="st1" cx="484.4" cy="740" rx="4.5" ry="4.5"/>
			
				<ellipse transform="matrix(0.1126 -0.9936 0.9936 0.1126 -218.4415 1076.4458)" class="st1" cx="493.4" cy="660.5" rx="4.5" ry="4.5"/>
			
				<ellipse transform="matrix(0.1126 -0.9936 0.9936 0.1126 -174.9542 1045.6472)" class="st1" cx="497.9" cy="620.8" rx="4.5" ry="4.5"/>
			
				<ellipse transform="matrix(0.1126 -0.9936 0.9936 0.1126 -261.9313 1107.2405)" class="st1" cx="488.9" cy="700.3" rx="4.5" ry="4.5"/>
			
				<ellipse transform="matrix(0.1126 -0.9936 0.9936 0.1126 -150.5043 1126.2838)" class="st1" cx="555.3" cy="647.4" rx="4.5" ry="4.5"/>
			
				<ellipse transform="matrix(0.1126 -0.9936 0.9936 0.1126 -453.9899 1112.6448)" class="st1" cx="395.9" cy="810.5" rx="4.5" ry="4.5"/>
			
				<ellipse transform="matrix(0.1126 -0.9936 0.9936 0.1126 -367.01 1051.0562)" class="st1" cx="404.9" cy="731" rx="4.5" ry="4.5"/>
			
				<ellipse transform="matrix(0.1126 -0.9936 0.9936 0.1126 -317.1729 983.1188)" class="st1" cx="391.8" cy="669.1" rx="4.5" ry="4.5"/>
			
				<ellipse transform="matrix(0.1126 -0.9936 0.9936 0.1126 -410.4998 1081.8508)" class="st1" cx="400.4" cy="770.7" rx="4.5" ry="4.5"/>
			
				<ellipse transform="matrix(0.1126 -0.9936 0.9936 0.1126 -360.6627 1013.9134)" class="st1" cx="387.3" cy="708.9" rx="4.5" ry="4.5"/>
			<path class="st1" d="M387.4,885.5c-0.7-0.1-1.4,0-2,0.2c0.4,3,0.8,5.9,1.1,8.7c2.4,0.2,4.5-1.5,4.8-4
				C391.7,888,389.9,885.8,387.4,885.5z"/>
			
				<ellipse transform="matrix(0.1126 -0.9936 0.9936 0.1126 -181.3023 1082.7888)" class="st1" cx="515.6" cy="642.9" rx="4.5" ry="4.5"/>
			<path class="st1" d="M387.3,749.1c0.3-2.5-1.5-4.7-4-5c-0.1,0-0.3,0-0.4,0c0.3,3.1,0.6,6,0.8,8.9
				C385.6,752.6,387.1,751.1,387.3,749.1z"/>
			
				<ellipse transform="matrix(0.1126 -0.9936 0.9936 0.1126 -373.3576 1088.1984)" class="st1" cx="422.6" cy="753.1" rx="4.5" ry="4.5"/>
			
				<ellipse transform="matrix(0.1126 -0.9936 0.9936 0.1126 -329.8678 1057.4037)" class="st1" cx="427.1" cy="713.4" rx="4.5" ry="4.5"/>
			
				<ellipse transform="matrix(0.1126 -0.9936 0.9936 0.1126 -286.378 1026.609)" class="st1" cx="431.6" cy="673.6" rx="4.5" ry="4.5"/>
			
				<ellipse transform="matrix(0.1126 -0.9936 0.9936 0.1126 -323.5202 1020.2615)" class="st1" cx="409.4" cy="691.3" rx="4.5" ry="4.5"/>
			
				<ellipse transform="matrix(0.1126 -0.9936 0.9936 0.1126 -423.1953 1156.1345)" class="st1" cx="435.7" cy="815" rx="4.5" ry="4.5"/>
			
				<ellipse transform="matrix(0.1126 -0.9936 0.9936 0.1126 -242.8885 995.8139)" class="st1" cx="436.1" cy="633.9" rx="4.5" ry="4.5"/>
			
				<ellipse transform="matrix(0.1126 -0.9936 0.9936 0.1126 -280.0307 989.4663)" class="st1" cx="413.9" cy="651.5" rx="4.5" ry="4.5"/>
			
				<ellipse transform="matrix(0.1126 -0.9936 0.9936 0.1126 -379.7055 1125.34)" class="st1" cx="440.2" cy="775.3" rx="4.5" ry="4.5"/>
			
				<ellipse transform="matrix(0.1126 -0.9936 0.9936 0.1126 -416.8477 1118.9923)" class="st1" cx="418.1" cy="792.9" rx="4.5" ry="4.5"/>
			<path class="st1" d="M475.9,598.1c-0.3,2.5,1.5,4.7,4,5c2.5,0.3,4.7-1.5,5-4c0.2-1.9-0.8-3.6-2.3-4.5c-1.9,0.3-3.7,0.7-5.6,1.1
				C476.3,596.4,476,597.2,475.9,598.1z"/>
			
				<ellipse transform="matrix(0.1126 -0.9936 0.9936 0.1126 -169.547 1237.7104)" class="st1" cx="608.2" cy="713.8" rx="4.5" ry="4.5"/>
			
				<ellipse transform="matrix(0.1126 -0.9936 0.9936 0.1126 -213.0372 1268.5045)" class="st1" cx="603.7" cy="753.5" rx="4.5" ry="4.5"/>
			<path class="st1" d="M621.8,771.2c-2.5-0.3-4.7,1.5-5,4c-0.3,2.5,1.5,4.7,4,5c0.6,0.1,1.2,0,1.7-0.1c0.8-2.3,1.6-4.6,2.4-6.9
				C624.2,772,623.1,771.3,621.8,771.2z"/>
			<path class="st1" d="M555.3,607.2c-0.3,2.5,1.5,4.7,4,5c0.7,0.1,1.4,0,2.1-0.3l-1.9-8.7C557.4,603.3,555.6,605,555.3,607.2z"/>
			<path class="st1" d="M629,700.5l-3.1-3.5C626.2,698.6,627.4,700,629,700.5z"/>
			
				<ellipse transform="matrix(0.1126 -0.9936 0.9936 0.1126 -175.895 1274.8521)" class="st1" cx="625.8" cy="735.9" rx="4.5" ry="4.5"/>
			
				<ellipse transform="matrix(0.1126 -0.9936 0.9936 0.1126 -163.2033 1200.5626)" class="st1" cx="590.6" cy="691.7" rx="4.5" ry="4.5"/>
			
				<ellipse transform="matrix(0.1126 -0.9936 0.9936 0.1126 -137.8095 1051.9989)" class="st1" cx="520.1" cy="603.2" rx="4.5" ry="4.5"/>
			
				<ellipse transform="matrix(0.1126 -0.9936 0.9936 0.1126 -497.4797 1143.4393)" class="st1" cx="391.4" cy="850.2" rx="4.5" ry="4.5"/>
			<path class="st1" d="M519.6,824.5c0.3-2.5-1.5-4.7-4-5s-4.7,1.5-5,4c-0.1,0.7,0,1.4,0.2,2c2.4,0.7,4.7,1.4,7.1,2
				C518.9,826.8,519.5,825.7,519.6,824.5z"/>
			<path class="st1" d="M475.9,815c-2.3-0.3-4.4,1.3-4.9,3.5c1.4-0.1,2.7-0.2,4.1-0.1c1.5,0.1,3,0.2,4.7,0.4
				C479.5,816.8,478,815.3,475.9,815z"/>
			
				<ellipse transform="matrix(0.1126 -0.9936 0.9936 0.1126 -193.9945 1157.0779)" class="st1" cx="550.8" cy="687.1" rx="4.5" ry="4.5"/>
			<path class="st1" d="M599.1,833.5c0.3-2.5-1.5-4.7-4-5s-4.7,1.5-5,4c-0.3,2.5,1.5,4.7,4,5c0.8,0.1,1.5,0,2.2-0.3l2.8-3.5
				C599.1,833.6,599.1,833.6,599.1,833.5z"/>
			
				<ellipse transform="matrix(0.1126 -0.9936 0.9936 0.1126 -460.3375 1149.787)" class="st1" cx="413.6" cy="832.6" rx="4.5" ry="4.5"/>
			
				<ellipse transform="matrix(0.1126 -0.9936 0.9936 0.1126 -249.2358 1032.9567)" class="st1" cx="453.7" cy="656" rx="4.5" ry="4.5"/>
			<path class="st1" d="M409.6,867.9c-2.5-0.3-4.7,1.5-5,4c-0.2,2.1,1,4,3,4.7c1.1-2.9,2.2-5.7,3.3-8.3
				C410.5,868.1,410,867.9,409.6,867.9z"/>
			
				<ellipse transform="matrix(0.1126 -0.9936 0.9936 0.1126 -206.6896 1231.3623)" class="st1" cx="586" cy="731.4" rx="4.5" ry="4.5"/>
			
				<ellipse transform="matrix(0.1126 -0.9936 0.9936 0.1126 -256.527 1299.2991)" class="st1" cx="599.2" cy="793.3" rx="4.5" ry="4.5"/>
			
				<ellipse transform="matrix(0.1126 -0.9936 0.9936 0.1126 -187.6499 1119.9308)" class="st1" cx="533.2" cy="665" rx="4.5" ry="4.5"/>
			
				<ellipse transform="matrix(0.1126 -0.9936 0.9936 0.1126 -100.6673 1058.3464)" class="st1" cx="542.2" cy="585.5" rx="4.5" ry="4.5"/>
			
				<ellipse transform="matrix(0.1126 -0.9936 0.9936 0.1126 -144.1571 1089.1411)" class="st1" cx="537.7" cy="625.3" rx="4.5" ry="4.5"/>
			
				<ellipse transform="matrix(0.1126 -0.9936 0.9936 0.1126 -324.4638 1249.4617)" class="st1" cx="537.3" cy="806.4" rx="4.5" ry="4.5"/>
			
				<ellipse transform="matrix(0.1126 -0.9936 0.9936 0.1126 -274.6264 1181.5249)" class="st1" cx="524.2" cy="744.5" rx="4.5" ry="4.5"/>
			
				<ellipse transform="matrix(0.1126 -0.9936 0.9936 0.1126 -318.1162 1212.3195)" class="st1" cx="519.7" cy="784.3" rx="4.5" ry="4.5"/>
			
				<ellipse transform="matrix(0.1126 -0.9936 0.9936 0.1126 -231.1367 1150.7302)" class="st1" cx="528.7" cy="704.8" rx="4.5" ry="4.5"/>
			
				<ellipse transform="matrix(0.1126 -0.9936 0.9936 0.1126 -280.974 1218.6671)" class="st1" cx="541.8" cy="766.6" rx="4.5" ry="4.5"/>
			
				<ellipse transform="matrix(0.1126 -0.9936 0.9936 0.1126 -243.8318 1225.0146)" class="st1" cx="563.9" cy="749" rx="4.5" ry="4.5"/>
			
				<ellipse transform="matrix(0.1126 -0.9936 0.9936 0.1126 -156.8519 1163.426)" class="st1" cx="572.9" cy="669.5" rx="4.5" ry="4.5"/>
			
				<ellipse transform="matrix(0.1126 -0.9936 0.9936 0.1126 -293.6692 1292.9515)" class="st1" cx="577" cy="810.9" rx="4.5" ry="4.5"/>
			
				<ellipse transform="matrix(0.1126 -0.9936 0.9936 0.1126 -200.342 1194.2201)" class="st1" cx="568.4" cy="709.3" rx="4.5" ry="4.5"/>
			
				<ellipse transform="matrix(0.1126 -0.9936 0.9936 0.1126 -287.3216 1255.8093)" class="st1" cx="559.4" cy="788.8" rx="4.5" ry="4.5"/>
			
				<ellipse transform="matrix(0.1126 -0.9936 0.9936 0.1126 -250.1794 1262.1569)" class="st1" cx="581.5" cy="771.1" rx="4.5" ry="4.5"/>
			
				<ellipse transform="matrix(0.1126 -0.9936 0.9936 0.1126 -330.8114 1286.6039)" class="st1" cx="554.9" cy="828.5" rx="4.5" ry="4.5"/>
			
				<ellipse transform="matrix(0.1126 -0.9936 0.9936 0.1126 -237.4842 1187.8724)" class="st1" cx="546.3" cy="726.9" rx="4.5" ry="4.5"/>
		</g>
		<path class="st4" d="M838,582.6l35.7,12.5c0,0,69.3-6.9,84.1-1.3c14.8,5.6,35.5,18.9,43.9,33.8c8.4,14.8,19.6,56.4,19.6,65.4
			c0,9-3.7,33.6-12.3,62.4c-8.6,28.8-12.9,53.8-12.9,53.8l-7.5,81.8c0,0-4.1-0.4-5.4,0c-1.3,0.4-38.7-37-38.7-37s-40-31-58.7-35.7
			c-18.7-4.7-52.3-9-52.3-9l-21.7-69.3c0,0-8.2-61.8-8.6-71.4c-0.4-9.7,2.8-28.6,7.7-38.5S833.2,585.4,838,582.6z"/>
		<g>
			
				<ellipse transform="matrix(0.1126 -0.9936 0.9936 0.1126 -8.9703 1642.0698)" class="st1" cx="914.8" cy="826.1" rx="4.5" ry="4.5"/>
			
				<ellipse transform="matrix(0.1126 -0.9936 0.9936 0.1126 78.0092 1580.4806)" class="st1" cx="923.9" cy="746.6" rx="4.5" ry="4.5"/>
			
				<ellipse transform="matrix(0.1126 -0.9936 0.9936 0.1126 214.8268 1450.9551)" class="st1" cx="919.7" cy="605.2" rx="4.5" ry="4.5"/>
			
				<ellipse transform="matrix(0.1126 -0.9936 0.9936 0.1126 34.5194 1611.2751)" class="st1" cx="919.4" cy="786.3" rx="4.5" ry="4.5"/>
			
				<ellipse transform="matrix(0.1126 -0.9936 0.9936 0.1126 164.9888 1518.8914)" class="st1" cx="932.9" cy="667.1" rx="4.5" ry="4.5"/>
			
				<ellipse transform="matrix(0.1126 -0.9936 0.9936 0.1126 184.0316 1407.4647)" class="st1" cx="880" cy="600.7" rx="4.5" ry="4.5"/>
			
				<ellipse transform="matrix(0.1126 -0.9936 0.9936 0.1126 121.499 1549.6859)" class="st1" cx="928.4" cy="706.8" rx="4.5" ry="4.5"/>
			
				<ellipse transform="matrix(0.1126 -0.9936 0.9936 0.1126 171.3364 1481.7491)" class="st1" cx="915.2" cy="644.9" rx="4.5" ry="4.5"/>
			
				<ellipse transform="matrix(0.1126 -0.9936 0.9936 0.1126 127.8466 1512.5437)" class="st1" cx="910.7" cy="684.7" rx="4.5" ry="4.5"/>
			
				<ellipse transform="matrix(0.1126 -0.9936 0.9936 0.1126 90.7044 1506.1962)" class="st1" cx="888.6" cy="702.3" rx="4.5" ry="4.5"/>
			
				<ellipse transform="matrix(0.1126 -0.9936 0.9936 0.1126 177.684 1444.6069)" class="st1" cx="897.6" cy="622.8" rx="4.5" ry="4.5"/>
			
				<ellipse transform="matrix(0.1126 -0.9936 0.9936 0.1126 134.1942 1475.4016)" class="st1" cx="893.1" cy="662.6" rx="4.5" ry="4.5"/>
			
				<ellipse transform="matrix(0.1126 -0.9936 0.9936 0.1126 -2.6228 1604.9276)" class="st1" cx="897.2" cy="803.9" rx="4.5" ry="4.5"/>
			
				<ellipse transform="matrix(0.1126 -0.9936 0.9936 0.1126 84.3568 1543.3384)" class="st1" cx="906.2" cy="724.4" rx="4.5" ry="4.5"/>
			
				<ellipse transform="matrix(0.1126 -0.9936 0.9936 0.1126 40.867 1574.1329)" class="st1" cx="901.7" cy="764.2" rx="4.5" ry="4.5"/>
			
				<ellipse transform="matrix(0.1126 -0.9936 0.9936 0.1126 28.1719 1648.4174)" class="st1" cx="937" cy="808.4" rx="4.5" ry="4.5"/>
			
				<ellipse transform="matrix(0.1126 -0.9936 0.9936 0.1126 152.2937 1593.1758)" class="st1" cx="968.1" cy="711.3" rx="4.5" ry="4.5"/>
			
				<ellipse transform="matrix(0.1126 -0.9936 0.9936 0.1126 58.9671 1691.9078)" class="st1" cx="976.7" cy="812.9" rx="4.5" ry="4.5"/>
			
				<ellipse transform="matrix(0.1126 -0.9936 0.9936 0.1126 15.4708 1722.6953)" class="st1" cx="972.2" cy="852.7" rx="4.5" ry="4.5"/>
			
				<ellipse transform="matrix(0.1126 -0.9936 0.9936 0.1126 239.2739 1531.5872)" class="st1" cx="977.1" cy="631.8" rx="4.5" ry="4.5"/>
			<path class="st1" d="M989.9,834.6c-0.3,2.3,1.3,4.4,3.5,4.9l0.8-8.8C992,830.7,990.1,832.3,989.9,834.6z"/>
			<path class="st1" d="M813.6,693.8c0.3-2.5-1.5-4.7-4-5c-1.7-0.2-3.2,0.6-4.2,1.9c0.2,2,0.5,4,0.7,6c0.7,0.6,1.5,0.9,2.4,1.1
				C811.1,698.1,813.3,696.3,813.6,693.8z"/>
			
				<ellipse transform="matrix(0.1126 -0.9936 0.9936 0.1126 195.7834 1562.3811)" class="st1" cx="972.6" cy="671.6" rx="4.5" ry="4.5"/>
			
				<ellipse transform="matrix(0.1126 -0.9936 0.9936 0.1126 65.3141 1654.765)" class="st1" cx="959.1" cy="790.8" rx="4.5" ry="4.5"/>
			
				<ellipse transform="matrix(0.1126 -0.9936 0.9936 0.1126 202.131 1525.2389)" class="st1" cx="955" cy="649.5" rx="4.5" ry="4.5"/>
			
				<ellipse transform="matrix(0.1126 -0.9936 0.9936 0.1126 108.8039 1623.9703)" class="st1" cx="963.6" cy="751.1" rx="4.5" ry="4.5"/>
			
				<ellipse transform="matrix(0.1126 -0.9936 0.9936 0.1126 115.1514 1586.8281)" class="st1" cx="946" cy="728.9" rx="4.5" ry="4.5"/>
			
				<ellipse transform="matrix(0.1126 -0.9936 0.9936 0.1126 158.6412 1556.0336)" class="st1" cx="950.5" cy="689.2" rx="4.5" ry="4.5"/>
			
				<ellipse transform="matrix(0.1126 -0.9936 0.9936 0.1126 71.6617 1617.6228)" class="st1" cx="941.5" cy="768.7" rx="4.5" ry="4.5"/>
			
				<ellipse transform="matrix(0.1126 -0.9936 0.9936 0.1126 21.8243 1685.5596)" class="st1" cx="954.6" cy="830.6" rx="4.5" ry="4.5"/>
			
				<ellipse transform="matrix(0.1126 -0.9936 0.9936 0.1126 102.4563 1661.1125)" class="st1" cx="981.2" cy="773.2" rx="4.5" ry="4.5"/>
			
				<ellipse transform="matrix(0.1126 -0.9936 0.9936 0.1126 226.5781 1605.871)" class="st1" cx="1012.4" cy="676.1" rx="4.5" ry="4.5"/>
			
				<ellipse transform="matrix(0.1126 -0.9936 0.9936 0.1126 183.0883 1636.6655)" class="st1" cx="1007.9" cy="715.8" rx="4.5" ry="4.5"/>
			
				<ellipse transform="matrix(0.1126 -0.9936 0.9936 0.1126 139.5992 1667.4608)" class="st1" cx="1003.3" cy="755.6" rx="4.5" ry="4.5"/>
			
				<ellipse transform="matrix(0.1126 -0.9936 0.9936 0.1126 189.4359 1599.5233)" class="st1" cx="990.2" cy="693.7" rx="4.5" ry="4.5"/>
			<path class="st1" d="M994.4,794.8c-0.3,2.3,1.3,4.4,3.6,4.9c0.5-2.5,1.1-5.5,1.9-8.8c-0.2,0-0.3-0.1-0.5-0.1
				C996.9,790.6,994.7,792.3,994.4,794.8z"/>
			
				<ellipse transform="matrix(0.1126 -0.9936 0.9936 0.1126 145.9461 1630.318)" class="st1" cx="985.7" cy="733.4" rx="4.5" ry="4.5"/>
			<path class="st1" d="M933,843.7c-0.7-0.1-1.4,0-2,0.2c2.2,1.6,4.2,3,6,4.3C937,846,935.3,844,933,843.7z"/>
			
				<ellipse transform="matrix(0.1126 -0.9936 0.9936 0.1126 232.9256 1568.7288)" class="st1" cx="994.7" cy="654" rx="4.5" ry="4.5"/>
			
				<ellipse transform="matrix(0.1126 -0.9936 0.9936 0.1126 72.605 1388.422)" class="st1" cx="813.6" cy="653.6" rx="4.5" ry="4.5"/>
			<path class="st1" d="M817.6,618.3c2.5,0.3,4.7-1.5,5-4c0.2-1.6-0.5-3.1-1.7-4c-1.4,2.7-2.8,5.3-4.1,7.8
				C817.1,618.2,817.3,618.3,817.6,618.3z"/>
			<path class="st1" d="M990.3,870.3c-2.5-0.3-4.7,1.5-5,4c-0.3,2.5,1.5,4.7,4,5c0.1,0,0.2,0,0.3,0l0.8-8.9
				C990.4,870.4,990.4,870.3,990.3,870.3z"/>
			
				<ellipse transform="matrix(0.1126 -0.9936 0.9936 0.1126 208.4786 1488.0967)" class="st1" cx="937.4" cy="627.3" rx="4.5" ry="4.5"/>
			
				<ellipse transform="matrix(0.1126 -0.9936 0.9936 0.1126 245.6148 1494.4396)" class="st1" cx="959.5" cy="609.7" rx="4.5" ry="4.5"/>
			
				<ellipse transform="matrix(0.1126 -0.9936 0.9936 0.1126 153.237 1363.975)" class="st1" cx="840.3" cy="596.2" rx="4.5" ry="4.5"/>
			
				<ellipse transform="matrix(0.1126 -0.9936 0.9936 0.1126 140.5418 1438.2594)" class="st1" cx="875.5" cy="640.4" rx="4.5" ry="4.5"/>
			
				<ellipse transform="matrix(0.1126 -0.9936 0.9936 0.1126 22.7676 1456.3588)" class="st1" cx="826.7" cy="715.4" rx="4.5" ry="4.5"/>
			
				<ellipse transform="matrix(0.1126 -0.9936 0.9936 0.1126 -33.4174 1561.4379)" class="st1" cx="857.5" cy="799.4" rx="4.5" ry="4.5"/>
			
				<ellipse transform="matrix(0.1126 -0.9936 0.9936 0.1126 146.8894 1401.1172)" class="st1" cx="857.9" cy="618.3" rx="4.5" ry="4.5"/>
			
				<ellipse transform="matrix(0.1126 -0.9936 0.9936 0.1126 10.0724 1530.6432)" class="st1" cx="862" cy="759.7" rx="4.5" ry="4.5"/>
			
				<ellipse transform="matrix(0.1126 -0.9936 0.9936 0.1126 3.7248 1567.7854)" class="st1" cx="879.6" cy="781.8" rx="4.5" ry="4.5"/>
			
				<ellipse transform="matrix(0.1126 -0.9936 0.9936 0.1126 53.5622 1499.8486)" class="st1" cx="866.5" cy="719.9" rx="4.5" ry="4.5"/>
			
				<ellipse transform="matrix(0.1126 -0.9936 0.9936 0.1126 103.3996 1431.9117)" class="st1" cx="853.4" cy="658.1" rx="4.5" ry="4.5"/>
			<ellipse transform="matrix(0.1126 -0.9936 0.9936 0.1126 97.052 1469.054)" class="st1" cx="871" cy="680.2" rx="4.5" ry="4.5"/>
			
				<ellipse transform="matrix(0.1126 -0.9936 0.9936 0.1126 47.2146 1536.9908)" class="st1" cx="884.1" cy="742.1" rx="4.5" ry="4.5"/>
			
				<ellipse transform="matrix(0.1126 -0.9936 0.9936 0.1126 66.2574 1425.5642)" class="st1" cx="831.2" cy="675.7" rx="4.5" ry="4.5"/>
			
				<ellipse transform="matrix(0.1126 -0.9936 0.9936 0.1126 109.7472 1394.7695)" class="st1" cx="835.8" cy="635.9" rx="4.5" ry="4.5"/>
			
				<ellipse transform="matrix(0.1126 -0.9936 0.9936 0.1126 59.9098 1462.7064)" class="st1" cx="848.9" cy="697.8" rx="4.5" ry="4.5"/>
			
				<ellipse transform="matrix(0.1126 -0.9936 0.9936 0.1126 -20.7222 1487.1534)" class="st1" cx="822.2" cy="755.2" rx="4.5" ry="4.5"/>
			
				<ellipse transform="matrix(0.1126 -0.9936 0.9936 0.1126 16.42 1493.501)" class="st1" cx="844.4" cy="737.6" rx="4.5" ry="4.5"/>
			
				<ellipse transform="matrix(0.1126 -0.9936 0.9936 0.1126 -27.0698 1524.2957)" class="st1" cx="839.9" cy="777.3" rx="4.5" ry="4.5"/>
		</g>
		<path class="st5" d="M635,208.6c0,0-45.6,13.8-57.5,34s-26,58.1-24.1,68.9c1.9,10.8,1.7,54.7,1.7,54.7l8.8,61.1l0.4,18.1l-5.6,2
			l-2.8,8.7l-9.7,66.5l-1.5,24.3l9.3,28l1.7,19.2l7.7,34.2l36.6,44.3l38.5,40l-15.9,72.9l-26.5,59.8l-28.2,56.2l-23.2-68.6
			l-58.5-15.5l-28.2,4.9c0,0-39.6,15.3-44.3,39.6l28.8,104.8L447,980h242.1l25-58.3l16.1,58.3h185.7c0,0,43.3-85.4,47.3-94
			c4.1-8.6,3.7-10.8,3.7-10.8s-47.8-40.5-49.5-41.3c-1.7-0.9-27.8-17.4-50.1-21.5c-22.4-4.1-32.9-3-32.9-3L813,740.5
			c0,0-12.3-73.6-9.9-83.9c2.4-10.3,10.8-37.7,17.9-48.8c7.1-11.2,17.2-34,20-40.7c2.8-6.7,21.3-59.6,21.3-59.6l8.8-66.8l-28-37.1
			l-21.9-34.8l-5.8,1.8l-1.3,1.7c0,0-11.4-13.3-12.5-18.7s-3.9-43-3.9-43s-12.5-17.2-13.8-21.1c-1.3-3.9-8.1-56.1-17.1-65.7
			c-8.9-9.6-28.7-19.7-52.4-21.4c-23.7-1.7-45.8-3.7-50.8-2.4C658.7,201.2,635,208.6,635,208.6z"/>
		<path class="st1" d="M599.1,367.2c0,0,12.4-14.3,18.9-15.3s19.8,0.8,23,3.2c3.3,2.4,13.3,12.9,13.3,12.9s0.1,3-3.4,5.6
			c-3.4,2.6-15.1,8.1-21.1,10.1s-13.5-0.2-16.4-1.6c-2.9-1.4-14.3-11.3-14.3-11.3V367.2z"/>
		<path class="st1" d="M728.1,359.1c0,0,9.9-10.6,17.4-12.9s12.8-3.6,18.4-0.8s16.4,11.6,16.4,11.6l1.4,2l-4.5,6.9
			c0,0-8.6,7.5-15.9,9.6s-20-2.4-20-2.4l-9.4-5.4l-6.7-4.4L728.1,359.1z"/>
		<path class="st4" d="M755.6,351.1c-6,0-10.9,4.9-10.9,10.9s4.9,10.9,10.9,10.9s10.9-4.9,10.9-10.9S761.6,351.1,755.6,351.1z
			 M753.9,360c-1.5,0-2.8-1.2-2.8-2.8c0-1.5,1.2-2.8,2.8-2.8s2.8,1.2,2.8,2.8C756.6,358.8,755.4,360,753.9,360z"/>
		<path class="st4" d="M614,369.9c0,6,4.9,10.9,10.9,10.9s10.9-4.9,10.9-10.9s-4.9-10.9-10.9-10.9S614,363.9,614,369.9z
			 M623.8,365.2c0-1.5,1.2-2.8,2.8-2.8s2.8,1.2,2.8,2.8c0,1.5-1.2,2.8-2.8,2.8S623.8,366.8,623.8,365.2z"/>
		<path class="st6" d="M593.8,202.8c0,0-42.3,31.4-49.2,43.5c-6.9,12.1-17.4,36.2-23.2,51c-5.8,14.8-18.5,43.7-26,54.4
			c-7.5,10.8-46,92.1-49.7,105.2c-3.7,13.1-1.1,39.2-1.1,39.2l-14,7.7c0,0,8.8,3.7,14.4,4.7l6,8.6c0,0,23.2,31.6,29.9,37
			c6.7,5.4,14,7.5,14,7.5l-7.3-15.1c0,0,5.8-45.2,7.3-44.3c1.5,0.9,3,22.8,3,22.8s3.7,7.3,3.4,8c-0.2,0.6-10.8,11.8-10.8,11.8
			l0.6,1.9l14.6-1.5c0,0,15.9,17.4,23.7,20.4c7.7,3,18.5,4.5,18.5,4.5s3.4-2.2,3.4-2.8c0-0.6-7.7-25.4-7.7-25.4l7.3-44.8l6.5-50h5.4
			l1.1-3.5c0,0,1.2-33.8-3-51.4s-6-54.7-6-54.7s14.2-20.2,16.6-29.9c2.4-9.7,1.9-51.9,1.9-51.9s3.4-12.5,13.3-14.6
			c9.9-2.2,19.2-2.5,30.6-10.6c11.4-8,12.2-10.4,12.6-12.1c0.4-1.7,0.4-3.9,0.4-3.9s3.3,2,5.8,2.8s6-0.2,6-0.2l-3.7-5.2l3.1-2.4
			l4.4,1.5l-1.4-4.4l5.6,1.3l1.9-2.3l5.6,1.5c0,0,4.8,2.7,8.1,3s8.8-0.6,8.8-0.6l-6.7-5.2c0,0,9,4.4,12.3,4.4s-3.4-6-3.1-6.5
			c0.3-0.5,4.5-5.1,4.5-5.1l5.2,6.8c0,0,1.1,1.9,2.6,3.1c1.5,1.1,4.8,2.7,4.8,2.7s-0.6-6.9,0-7.7c0.6-0.8,1-0.9,1-0.9l0.6,6.8
			l2.7,3.3l1.4-5.2c0,0,0.7,4.7,1.4,5.6c0.7,1,2.9,2.2,2.9,1.7c0-0.5,3.5-5.9,3.5-5.9l6.3-0.5v0.9l20.9,3.9l17.3,5.8
			c0,0,16.1,9,17.1,13.3s15.7,59,18.6,64.7c2.9,5.7,9,13.2,9,13.2s0.2,30.9,1.8,36.1s12.4,25.3,13.4,26.1s1,0.8,1,0.8l4.8-4
			l21.5,27.8l24.9,36.2l6.7,14l-8.5,54l-14,40.8l-9.1,27l5.3,0.6c0,0,17.8-10.3,25.1-23.2c7.3-12.9,10-26.3,8.8-36.5
			c-1.2-10.2-8.7-33.7-8.7-33.7l1.5-10.6c0,0,13.2,14.6,15.3,19.4s4.6,18.9,4.6,19.1c0,0.2-2.7,19.4-2.7,19.4s9-3.1,13.3-10.3
			c4.4-7.3,9.8-30.7,2.1-45.5c-7.7-14.8-23.7-39.8-23.7-39.8l-20-42.6c0,0,13.8-5.3,18.2-11.4c4.4-6.1,4.7-9,4.7-9
			s-20.3-4-24.7-10.5c-4.4-6.5-13.9-52.3-13.9-52.3l-5.6-11.5c0,0-5.9-32.5-10-38.7s-41-35-41-35s-24-50.9-60.5-59.2
			c-36.5-8.3-68.3-2.3-76.8,0.8S630,169,630,169s-18.9,13.2-19.6,13.7S593.8,202.8,593.8,202.8z"/>
		<path class="st7" d="M654.4,499.7c0,0,7.7-14.2,14.8-21.1c7.1-6.9,11.6-14,18.5-12.3c6.9,1.7,3.9,1.7,10.3,1.3
			c6.5-0.4,11-3.2,15.9,0.4c4.9,3.7,20.9,17.9,22.4,21.5s2.6,10.1,2.6,10.1s0,5.6-1.3,10.5c-1.3,4.9-7.3,25.8-18.3,36.8
			c-11,11-33.1,12.5-42.8,3s-16.8-31-17.9-35.3C657.6,510.5,654.4,499.7,654.4,499.7z"/>
		<path class="st1" d="M677,485.9c0,0,2.3-4.5,8.4-4.6c6.1-0.1,20.3,0.3,22.7,0c2.4-0.3,6.2,1.1,6.2,1.1l3.8,4.8c0,0-0.8,1.6-2.4,2
			c-1.6,0.4-15.4,4.6-17.6,5.1s-11.8,1.8-14.5,0S677,485.9,677,485.9z"/>
		<g>
			<path class="st3" d="M676.4,169c0.1,0,0.1,0,0.2,0C676.6,169,676.5,169,676.4,169z"/>
			<path class="st3" d="M670,169.3c2.1-0.2,3.9-0.3,5-0.3C673.3,169,671.6,169.1,670,169.3z"/>
			<path class="st3" d="M675,169c0.5,0,0.9,0,1.3,0C676.1,169,675.7,169,675,169z"/>
			<path class="st3" d="M604.8,639.5c-3.9-4.2-10.7-11.3-10.7-11.3c1.4,9.4,14.3,15.1,17.2,16.2
				C610.2,643.9,607.7,642.6,604.8,639.5z"/>
			<path class="st3" d="M956.3,839.7c0,0,14.6-71.4,18.5-112.3C974.8,727.4,957.8,818.1,956.3,839.7z"/>
			<path class="st3" d="M611.3,644.4c0.4,0.2,0.6,0.2,0.6,0.2S611.7,644.6,611.3,644.4z"/>
			<path class="st3" d="M550.5,690.4c0,0,34.9,74.5,46,89.1C596.5,779.4,565.5,711,550.5,690.4z"/>
			<path class="st3" d="M613.1,229c-0.4,0.3-0.8,0.5-1.3,0.7C611.8,229.7,612.3,229.5,613.1,229z"/>
			<path class="st3" d="M514.8,652.9c0,0-14.6-33.4-43-32.6C471.7,620.3,492,627.5,514.8,652.9z"/>
			<path class="st3" d="M414.1,701.6c0,0-9.9,94.3-7.3,114.5C406.7,816,416.2,730.4,414.1,701.6z"/>
			<path class="st3" d="M436.7,958.4c2,7.2,4.3,14.5,6.7,21.6h5.5c-2.6-7.5-5-15.4-7.2-23c-8.9-31.4-22.9-84.9-25.6-95.4
				c11.5-18.1,28.4-34.6,52.7-39.8c15.7-3.4,38.5,3.7,58.6,9.9c5.1,1.6,10,3.1,14.5,4.4l21.5,66.7c-6.4,10.7-12.6,20.1-18.6,28.1
				c-13.9,18.6-25.4,37.2-32.3,49h6c7-11.7,17.7-28.9,30.5-46c6-8,12.3-17.6,18.7-28.4l1.3-2.2c14.9-25.3,30.5-57,44.8-91.3
				c19.3-46.4,27.4-94.1,27.7-96.1c3.9,2.3,10.3,1.8,10.3,1.8c-4-0.5-8.7-3.7-11.1-5.5c-3.4-7.1-16.4-20.9-41.4-46.1
				c-10.1-10.2-19.6-19.8-21.3-22.5c-2.3-3.6-4.5-6-6.4-8.2c-2.6-2.8-4.4-4.9-5.3-8.3c-0.8-3.3-4.5-20.2-8-36.8
				c3,7.7,13,21.2,13,21.2l-0.5-1.2c-3.8-9.4-10.1-27.9-14.3-39l-0.7-1.9c-1.8-4.8-3.4-9.3-4.9-13.4l-0.2-1.1l-0.1,0
				c-2.4-6.8-3.9-11.9-4-13.5c-0.1-2.1,1.3-12.8,3.5-27.7l0.6-1.1l-0.4-0.3c2.7-17.5,6.4-40.5,10-62.2c2.5,0.6,5.8,2.3,6.8,6.7
				c-1.4,9.2-8.8,88.7-6.8,100.2c2.2,12.4,39,54.5,39,54.5l-0.8-1c-0.3-0.4-31.1-43-33.1-54.4c-2.1-11.6,6.4-94.3,6.8-98.7l0.2,0
				c2.5,1.9,9.6,7.9,12.1,16.7c3.1,10.9,3.8,48,3.8,58l0,0l0.1,1.3c0,0,0,0,0,0l0.1,1.3l0,0c0.6,5.2,2.9,11.3,3,11.6l12.4,19.1
				c0,0.7,0,1.3,0.2,1.9c3.4,14.6,23.7,35.1,23.7,35.1l-0.6-1.1c-9.6-17.2-17.7-32.7-18-34.5c-0.1-0.8-0.2-3.1-0.2-3.1
				c-1.3-19.4-1.3-57.6-1.3-70.6l0-2.9c0-3.9,1-4.7,1.1-4.8c0.1-0.1,0.3-0.1,0.3-0.1c0.1,0,8.9,3,13.9,15.7
				c3.4,8.7,5.6,26.9,7.1,40.1c1.1,9.3,1.6,13.8,2.4,15.5c0.5,1.2,6.8,11.3,14.8,23.4l-0.2,0.3l0.7,0.5
				c11.3,16.9,25.6,37.1,31.8,40.7c7,4.1,29.1,23.8,40.6,38.8c6.7,11.1,6.7,11.1,7.3,25.7c0.4,8-5.4,27.1-5,36.4
				c-0.1,0.3-0.1,0.7-0.2,1c-3.4,15.8-18.6,130.2-22.9,175c-2.5,25.8-8.1,54.9-15.5,81.3h24.8h4.1h19.4c-3.5-37.8-6.9-90.2-5-129.6
				c2.5-50.7,1.6-93.3,0.3-127.3c3.3-15.4,7-36.6,4.4-51c-0.7-3.7-3.2-8.2-6.8-13.2c0-8.1,0.4-14.2,1.4-18.2
				c3-11.3,10-21.4,15.7-29.5c2.7-3.8,5-7.1,6.6-10.2l1.3-2.5c6.4-11.9,25-45.9,33.4-57.5c0.6-0.7,1.1-1.4,1.7-2.1
				c0.1-0.1,0.2-0.3,0.3-0.4c7.8-8.7,32.7-45.1,33.7-46.6l0.7-1l-6.9-25.3l-0.2-0.2l0-0.3l-0.3,0c-6.2-7.8-16.2-21.4-17-25.1
				c-0.7-3.1,0.4-9.1,1.2-12.9c3.8,3,7.3,5.9,10.5,8.5l0,0.1l0.1,0c8.7,7.1,14.7,12.3,15.3,13.1c0.6,1,4.3,7.8,8.1,15.2l0.4,0.9
				c3.6,6.9,7.2,14.2,8.5,17.2c2,4.8-2.7,22.5-6.5,31.7l-2.1,8.4c0,0,16.8-33.8,13.4-42.1c-1.3-3.1-5.1-10.6-8.8-17.8l-4.4-22.2
				l-6.7-18.9l-0.3-0.4c-0.1-0.1-7.6-8.8-12.4-18.6c-0.1-0.2-0.2-0.5-0.3-0.7c-1.2-2.5-2.2-5.1-2.9-7.7c-1.2-4.5,0.6-9.9,2.1-13.1
				c0.1,0.1,0.1,0.2,0.2,0.2l0,0.3l0.3,0c6.6,8.3,22.7,28.3,29.4,36.8c9.1,11.5,19.9,38.6,18.9,41.4c-1.7,4.8-11.9,54.9-13,60.6
				l-0.3,1.3c0,0,5-8,18.1-60.1c1.6-6.6-11.8-36.5-19.7-46.4c-6.4-8-21.2-26.6-28.4-35.5c0.3-3.1,1.3-6.6,2.1-8.7
				c0.8,1,1.8,2.4,2.8,4c1.7,2.5,42.7,61.8,46.8,67.5c0.9,1.2,0.5,8-0.7,18.1l-0.1,0.5c-0.4,3.4-0.9,7.1-1.5,11l-0.1,0.6
				c-1.5,10.1-3.6,21.8-6.1,34l-25.7,73.2l-21.2,38.6c-0.5,1-12.5,25.3-12.5,48.3c-0.1,66,35.7,161.2,57.1,218.1
				c5.6,14.8,10,26.5,12.3,34c6.2,19.9,8.5,44.1,9.4,61.4h5.2c-0.8-17.5-3.2-42.4-9.6-62.9c-2.4-7.6-6.8-19.4-12.4-34.3
				c-7.5-19.9-16.7-44.5-25.6-70.9c10,0.1,40.7,1.7,68.8,18c17.6,10.2,33.5,24.1,46.2,35.3c4.8,4.2,11.4,10.6,11.4,10.6l-0.5,1.2
				c-0.3,0.8-27.1,66.9-48.8,103h6c9.9-16.9,20.5-39,29.2-58.3c6.1-1.4,28.5-6.7,35.5-10c5.5-2.6,9.8-11.1,9.3-18.1l0.1,0l-0.3-1.3
				c-4.3-20,6.9-103.9,14.3-127.2c1.3-4.2,2.9-8.4,4.5-12.8c7.6-20.5,16.2-43.7,7.9-81.5c-10.4-47.7-28.3-62.5-48.9-75.6
				c-14.2-9.1-43.9-6.5-67.9-4.5c-14.2,1.2-26.5,2.3-32.2,0.7c-12.6-3.3-26.6-9.7-31.7-12.1l3.1-8.8c0,0,0.1,0,0.1,0
				c18.5,0,33.6-24,38.4-46.6c4.5-21.1-7.5-47.2-9.9-52.3c0.2-1.4,0.4-2.9,0.6-4.3c1.5,1.9,3.1,3.7,4.6,5.4c4.5,5,8.7,9.7,11.8,19.6
				c4.8,15.5-3.6,32.8-3.7,32.9l-3.8,7.5l7.3-4.1c12.4-7,20.4-17.8,22.9-31.2c3.1-16-2.4-33-9.3-41.5c-9.7-11.9-32.6-60.1-37.5-70.5
				c20.3-5.5,23.4-25.2,23.4-25.2s-15.6,1.6-25.4-7.8c-7.2-6.9-9.1-24-10.4-30.9c-0.7-3.9-1.6-7.8-2.6-11.5l7.7-3.6l-8.7,0.2
				c-3.8-13.4-8.4-23.8-8.5-24l-0.1-0.3c-1-11.8-2.8-22.4-6.9-29.2c-10.4-17.1-37.6-36.5-42.4-39.8c-4.9-11.4-11.7-22.5-21.2-32.3
				c-32.4-33-64.9-35.7-110-29.2c-13.6,2-23.3,7.9-30.3,15.2c-3,1.7-25.2,14.8-30.1,23.3c-3.3,5.8-4.7,9.1-5.2,10.8
				c-5.8,3.6-41.2,26.5-56.4,52c-7.9,13.3-13,27.5-18.4,42.6c-5.8,16.1-11.8,32.8-21.6,48.8c-10.1,16.5-60.6,100.8-57.2,140.8
				c0.3,3.6,0.9,7.4,1.7,11.1c-8.2,4.2-14,6.5-14.2,6.5l-4.9,1.9l4.6,2.7c0.7,0.4,7.6,4.3,19.2,4.4c10.8,28.2,32.8,49.6,56.4,55
				l1.2,0.3c0,0-4.6-7-10.2-16.9c3.1-0.5,6.7-1.3,10.7-2.4c2.3,3.5,5,6.5,8.1,9c18.2,14.5,29.4,16.1,33.4,16.1
				c0.8,0,1.2-0.1,1.3-0.1l0.7-0.1c-2.7,2.5-8.5,6.9-19.5,10.4c-5.3,1.7-15.3,3.4-26.9,5.4c-26.7,4.7-63.3,11.1-82.2,23.2
				c-26.4,17-41.6,54.3-42.5,80.8c-0.5,13.7,1.9,38.1,3.9,59.6c1.6,16.8,3,31.3,2.5,35.5c-3,25.6-7.2,104,5.2,132.4l-0.2,0.2
				l0.6,0.6l3.9,3.8c6.5,5.8,21.3,16.8,39.6,17.3C433.8,947.9,435.3,953.5,436.7,958.4z M723.3,749.5c0.1,3.7,0.2,7.5,0.2,11.4
				L723.3,749.5z M820.2,423.8l6.2,17.4l1,5.2c-0.1-0.1-0.1-0.2-0.2-0.3c-0.5-0.9-3.8-3.9-8.3-7.6l-2.8-19.8
				C818.1,421.3,819.6,423.1,820.2,423.8z M867.7,595.9l-25,4.1c0,0,20.6-1,34.4-2.7c6.9,0.2,16.2-0.6,26.6-1.5
				c23.2-2,52-4.4,64.7,3.7c19.6,12.5,36.6,26.6,46.6,72.4c8,36.3-0.3,58.8-7.7,78.6c-1.7,4.5-3.2,8.7-4.6,13
				c-1.4,4.4-2.9,10.9-4.4,18.7c0.1-27,5.3-80.8,5.3-80.8c-8.1,33.2-8,81.5-7.8,94.7c-4.8,29.1-9,67.3-8.4,87.6
				c-1.1-0.6-2.3-1.1-3.7-1.4c-6.7-1.6-17-10.6-28.9-21.1c-12.9-11.3-29-25.4-47-35.9c-30.7-17.8-64.7-18.7-73.1-18.7
				c-4-12.1-7.9-24.5-11.5-37l0,0c2.7-3.8,5.3-7.5,7.7-11.3l0,0l62.1-81.5l-45.4,52.1c1.6-3.1,3.2-6.3,4.9-9.5
				c7.6-14.8,15.4-30.1,26.8-48.2c24.1-38.2,47.9-51.2,47.9-51.2c-1.1,0.3-27,8.5-52.2,48.4c-8.8,14-15.5,26.2-21.6,37.9l0,0
				c6.7-31.1,33.6-81.3,33.6-81.3s-21.1,26.3-30.1,51.6c-5.7,15.9-7.8,30.7-8.6,39.5c-0.1,0.3-0.3,0.6-0.4,0.9
				c-8.1,15.7-15.7,30.7-26.4,46.1c-9.5-34.2-16.3-68.4-16.2-96.9c0-1.5,0.1-2.9,0.2-4.4l20.1-36.8l-17.9,22.9
				c3.5-15,9.6-27.5,9.6-27.6l20.1-36.6C842.4,586.5,855.2,592.3,867.7,595.9z M814.5,490c-1.2,1.8-4.3,6.3-8.1,11.7
				c2.1-5.8,4.1-13,5.3-21.9L814.5,490z M846.3,564.9c-0.6,0.2-1.3,0.3-1.9,0.4l4.9-14C848.4,557.7,847.3,562.1,846.3,564.9z
				 M850.5,563.4C850.5,563.4,850.5,563.4,850.5,563.4c3.1-4.2,5.2-22.7,6.1-32.8l7.4-21.1c0.8,4,1.7,10.8,1.3,19.9
				C864.8,541.2,854.4,557.5,850.5,563.4z M875.9,522.8c-2.2,10.4-6.9,21.2-12.9,29.3c4.7-9.5,7.4-21.6,7.7-28.3
				c0.3-7.5-2.5-21-3.9-27.3c0.9-4.7,1.9-10,2.8-15.4C873.5,491.1,878.9,508.6,875.9,522.8z M846.6,322.4c2.1,11.6,3.9,21.9,5,28.3
				c-3.1-3-5.4-6.6-6.8-10.4c-2.3-6.3-3.1-16-3.7-26.9c1.4-0.5,2.5-0.9,3.2-1.3C845.2,315.5,846,319,846.6,322.4z M842.8,306.6
				c-0.6,0-1.2-0.1-2-0.2c0-1.1-0.1-2.2-0.1-3.2c-0.1-1.3-0.1-2.6-0.2-3.9C841.3,301.6,842.1,304.1,842.8,306.6z M840,342.1
				c2.3,6.5,6.9,12.2,13,16.5l0,0.2l0.2,0c3.8,2.6,8.1,4.7,12.8,6.1c3.7,1.1,7.4,1.7,10.8,1.7c1.3,0,2.4-0.1,3.6-0.2
				c-21.7,26.5-50.3,10.8-50.3,10.8s3.8,4.7,9.9,7.9c2.2,3.3,8.4,12.4,19.1,26.5c13.7,18.1,15.7,20.8,15.7,20.8S858,404.8,857.7,404
				s7.1,6.8,7.1,6.8l-12.2-22.9c1.9-0.1,4.1-0.4,6.5-0.9c4.2,9,28,59.3,38.5,72.2c6.2,7.6,11,22.9,8.2,37.3
				c-1.8,9.2-6.5,17.2-13.8,23.1c2.2-7.3,4.3-18.2,1-28.9c-3.4-10.9-8.2-16.3-12.9-21.5c-2.5-2.8-5.2-5.8-7.5-9.6
				c0.1-1.3,0.3-2.5,0.4-3.7c2.1,1.7,7.2,5.1,11.4,9.8c5.3,6,13.7,20.2,13.7,20.2s-1.3-9.7-7.1-18.3c-4.2-6.2-12.9-16.1-17.4-21
				c0-3.7-0.4-6.3-1.2-7.5c-2.4-3.3-18.5-26.5-45.4-65.4l-1.3-1.9c-4.2-6.8-6-7.3-6.6-7.5c-0.9-0.3-1.9-0.1-2.7,0.5
				c-1,0.7-1.8,2.2-2.5,4c-14.7-14.3-14.5-44.1-13.9-55.1c1.9,1,3.9,1.9,6.1,2.5c0.5,7.9,2.8,34.8,11.7,43.4
				c10.5,10.1,25.2,13.1,25.2,13.1s-20.4-12.3-23.5-23.7c-3-11.4-3-11.4-3-11.4s6.2,14.6,15.1,20.4c0,0-8-18.8-10.8-29.5
				c-2.7-10.7-2.7-10.7-2.7-10.7c6.7,0,13.2-1.4,18.2-2.8C836.6,325.8,837.5,335.4,840,342.1z M828.2,255.7
				c3.7,6.1,5.4,16.3,6.3,27.8l0,0l0,0.1c0.5,6.4,0.8,13.2,1,19.8c0,0.8,0.1,1.5,0.1,2.3c-8.7-1.7-21.2-6.6-26-19.9
				c-2.3-6.3-3.9-14.5-5.8-24c-2.5-12.3-5.2-26-10.1-39.6C803.6,229.6,820.9,243.6,828.2,255.7z M501.5,347.2
				c10.1-16.4,16.2-33.3,22-49.7c5.3-14.8,10.4-28.9,18-41.7c15.8-26.7,55.1-50.5,55.5-50.8l1-0.6l0.2-1.1c0,0,0.6-3,4.9-10.3
				c2.3-3.9,10.1-9.8,17.4-14.6c-1.6,2.8-2.7,5.4-3.4,7.9c-1.9,3-4.3,7.2-4.8,10.6c-0.7,4.5,3.7,9.4,5.8,11.5l-7.3-6.7l6.7,10
				c0,0-3.1-0.8-7-4c-3.9-3.2-3.4-15.8-3.4-15.8s-4.8,11.8-2.2,16.6c0.6,1.1,1.9,2.1,3.4,2.9c0,0,0,0,0,0c-2.8-1.3-8-4-8-4
				l-11.9,9.5l14.5-3.3L599,216l6.2-0.9l-18.8,17.6c0,0,0.8-0.2,6.6-4.2c4.4-3,15.9-10.1,21.2-13.4c-1.4,2.4-4.9,7.8-8,9.7
				c-4,2.4-4.8,2.6-4.8,2.6s6.9,0.2,12.6-2.3c5.6-2.4,8.5-6.6,8.5-6.6s-4.1,7.3-9.3,10.4c3.5-1.9,12.9-7.5,15.3-12.2
				c0.7-1.3,0.8-2.5,0.6-3.5c3.1,2.2,5.5,3.3,5.5,3.3s-29.4-19.6-2.4-45.5l0.3-0.3c6.3-6.7,15.1-12,27.3-13.8
				c43.5-6.3,74.8-3.8,105.6,27.7c9.2,9.4,15.7,20.2,20.5,31.4l0.3,0.6c6.6,15.6,9.8,31.9,12.7,46.2c1.9,9.7,3.6,18.1,6,24.7
				c5.4,14.9,18.6,20.7,28.5,22.9c-7.5,2-17.4,3.4-26.1,0.8c-4.3-3.4-9.4-9.5-12-19.8c-5.2-20.4-8.8-43.3-8.8-43.3s1.7,36.8,7,52.6
				c-4-6.2-6.7-14.6-9-23.8c-0.2-9.4-1.1-29.3-4.6-42.6c-4.7-18.1-16.1-32.1-34.9-44.3c0,0,19.4,15.9,27.1,32.1
				c4.3,9,6.6,23.5,7.7,34.5c-2.5-10.8-5.2-20.8-9.6-28.1c-0.9-1.6-2-3.2-3.2-4.8c-0.4-0.6-0.8-1.2-1.4-1.8
				c-15-19.4-44.2-38.1-64.5-40.5c-19-2.2-34.4,1.4-42.3,8.7c-6.3,5.8-4.7,11.2-1.7,15.1c0,0-5.8-4.7-4.3-13.3
				c1.5-8.6,22.2-14.4,22.2-14.4s-20.4,3.8-25.4,9.1c-4.9,5.3,0,18.6,0,18.6s-8-6.7-7.1-15.3c0.8-7.7,10.3-18.6,27.6-20.7
				c-8.3,0.8-22.5,3.2-30,10.6c-11,11,1.7,28.8,1.7,28.8s-12.9-7.5-13.8-16.1c-0.9-8.6,4.1-16.6,4.1-16.6s-8.6,13.7-6.9,22.3
				c1.7,8.5,11.6,18,14.8,18.9c3.2,1,5.6,0.7,6,0c0.4-0.7-5.2-5.9-5.2-5.9l9.9,2.6l-4.1-6l8.2,4.1l-1.9-4.5l11,3.8
				c0,0-4.2-4.4-5-6.2c-1.8-4.1,0.6-8.2,3.5-11.2c6.3-6.4,20.9-9.2,38-7.2c0.4,0,0.8,0.1,1.3,0.2c-11.5-0.5-24.7,1.5-31.5,5.2
				c-5.5,3-7.2,10.7-4.1,14.1c3.1,3.4,10.1,3.9,10.1,3.9s-0.5,0-2.6-1.8c-2-1.8-3.9-7-3.9-7s1.3,3,6.5,5.8c5.2,2.8,11,2.5,11,2.5
				s-1.3-1-2.4-2.6c-1.1-1.6-1.4-4.4-1.4-4.4c3.1,4.3,5.5,3.9,5.5,3.9s-6.1-10.2,0.9-14c7-3.8,25.9,2,25.9,2
				c-6.7-1.6-18.9-1.1-22.3,3.8c-3.3,4.8,1,11.3,1,11.3l0.3-4.9c0,1.3,1.8,4.1,1.8,4.1s-0.1-1.4-0.1-3.2c0-1.8,6-6.9,17.1-6.6
				c7.6,0.2,20.6,4.5,28.1,7.2c2.1,1.6,4.2,3.3,6.2,5c-7.3-3.1-15.7-5.3-23.2-7.7c-21-6.6-20.2,10.3-20.2,10.3l0.6-1.1
				c0.1-0.2,1.4-2.6,4.9-4c-1.1,2.3-1,5.5-1,5.5s6.3-2.5,12.1-3c5.7-0.5,12.9,2.5,12.9,2.5l-5.5,0.8c0,0,14.6,3.8,24.1,7.6
				c4.8,2,8.2,3.9,10.3,5.3l0.4,0.6l0.1,0c0.9,1.2,1.6,2.4,2.4,3.6c4.9,8.2,7.7,20.6,10.6,33.7c4,18,8.2,36.5,18.6,45.4
				c-0.2,2.7-0.7,8.8-0.4,16.5c-4.1-8.7-21.6-17.3-26.9-20.2c-5.8-3.1-21.3-0.2-28.6,1.6c-7.3,1.8-9.4,1.3-13.4,2.6
				c-4,1.3-8.9,12.4-8.9,12.4c0.8,0.8,9-1.1,14.5-2.6c5.5-1.5,7.1-4,14.7-6.7c7.6-2.7,17.4-1,28.7,2.2c10.5,3,18.8,12.8,20,14.2
				c0.9,13.8,4.4,31.1,15.1,41.8l-1.5,2.5c-0.3,0.5-6.8,11.1-4.4,20.5c0.7,2.8,1.8,5.7,3.1,8.4c-0.3,3.4-0.2,10.4,0.2,25.1
				c-3.6-3-7.2-5.9-10.2-8.3l-3.1-2.5l-1,3.8c-0.4,1.3-3.6,13.3-2.2,19.3c0.3,1.1,1,2.7,2,4.6c-3.6,4.4-12.6,15.2-21,21.3
				c0,0,6.5-2.6,13.3-8.6c4.4-3.8,6.9-8.7,8.2-11.8c3.9,6.6,11,16,14.5,20.4c-1.4,25-8.1,38.2-12.5,46.9c-1.1,2.1-2,3.9-2.7,5.6
				c-1.2,2.8-5.4,8.8-11.1,16c-0.5,0.6-1.1,1.3-1.7,2.2c-14.1,18-35.3,42.5-40.3,48c-7,7.7-26.5,14.5-48.8,12.1
				c-9-1-21.5-7.5-39.1-20.4c-7.5-11.1-13.5-20.7-14.3-22.6c-0.5-1-1.3-8.2-2-14c-1.6-13.5-3.8-32.1-7.4-41.4
				c-1.5-3.7-3.2-6.7-5-9.1c4.8,1.4,12,2,12,2c-6.1-2.1-12-4.8-17-7.4c-3.8-3.2-6.9-4.2-7.1-4.2c-0.2-0.1-0.5-0.2-1-0.2
				c-4.4-2.6-7.2-4.5-7.2-4.5l4.5,4.8c-0.4,0.2-0.8,0.3-1.2,0.6c-2.2,1.5-3.3,4.6-3.3,9l0,2.9c0,11.3-0.1,41.3,0.8,61.9l-7.1-10.9
				c-0.4-1.1-2.5-6.9-2.7-11l0,0c0-0.2,0-0.5,0-0.7c0-0.1,0-1.5,0-3.9c0.7,1.5,2,2.2,3.1,2.4c1.5,0.2,0-5.2-1.1-14.4
				c-0.5-4.2-1.6-8.6-2.7-12.3c-0.6-12.4-1.5-25.4-3.3-31.4c-0.4-1.4-0.9-2.6-1.4-3.9l5.8,2.4L583,460.8c-4.1-5.1-8.5-8-8.8-8.1
				l-0.8-0.5l-1,0.2c-0.1,0-0.7,0.1-1.4,0.4c-1-2-2.4-3.5-3.9-4.6c0.9-17.4-0.5-31.5-2-38.3c-3.5-16-7.9-51.7-6.9-72.1
				c4.8-5.9,9-11.3,11.3-16.1c7.7-15.2,8.4-45.6,6.5-62.2c-1.7-14.7,23.5-27.4,23.7-27.5l1.2-0.6c0,0-32.1,10.3-30,28.7
				c1.8,16,1.2,45-6,59.3c-2.3,4.5-6.5,10-11.4,16l-0.3,0l0,0.4c-1.6,2-3.3,4-5,6c-9.2,10.9-18.7,22.2-20.8,30.5
				c-1.8,7.4-0.2,15.9,1.8,22.6c-3-4.6-5.9-11.4-6.2-20.8c-0.5-13.3,8.2-27,15.9-39.1c5.2-8.2,10.1-16,11.6-22.7
				c1.7-7.9,1.2-16.1,0.7-24.1c-0.5-8.2-0.9-15.9,1.3-21.5c10.9-28.5,44.5-49.4,44.5-49.4s-32.9,14.4-49.3,47.4
				c-3.2,6.4-2.2,15-1.7,23.8c0.5,7.6,0.9,15.5-0.6,22.7c-1.3,5.8-5.9,13.2-10.9,21c-6.4,10-13.4,21.1-15.8,32.6l-0.2-0.1l-0.5,1.2
				c-4.2,10.1-7.7,23.1-11.8,38.1c-1.6,5.8-3.2,11.9-5,18.1l-15.3,33.1l18.9-67.1l-27.6,71.3l15.7-60.4c0,0-5.5,15.8-14.2,36.3
				c-7.1,16.6-10.3,37.7-11.3,45.2c-7,5.3-14.5,9.8-21,13.4c-0.6-3-1-6.1-1.3-9C441.8,446.5,491.5,363.4,501.5,347.2z M616,214.1
				L616,214.1C616,214,616,214,616,214.1C616,214,616,214,616,214.1z M435.2,505.2c15.3-6.8,52.1-25.7,61.8-52.8
				c5.8-16.3,10.3-32.7,14.2-47.1c2.5-9.3,4.8-17.7,7.2-25.2c1,6.7,3.1,12,5.5,16.1c-1.3,8.1-7.2,44.5-15.2,59.4
				c-9,16.8-15.4,22.8-15.4,22.8s18.9-15.4,27-37.7c6.2-17.2,7.8-32.3,8.3-38.2c0.1,0.1,0.2,0.3,0.4,0.4c0.3,2.7,0.8,6.5,1.4,11.2
				c0.2,1.3,0.3,2.6,0.5,4c-0.4,3.5-5.8,41.7-34.6,67.2l-0.3-0.1l-0.2,0.5c-2.1,1.8-4.2,3.5-6.5,5.2
				C463.6,509,444.5,507.7,435.2,505.2z M520.9,512.1c-1.4,1.7-2.9,3.5-4.4,5.1c0.1-2.4,0.4-7.9,1-15.8c0.9-11,5.8-30.8,5.8-30.8
				s-0.6,2.8-2.2,18.7C520.1,500.7,520.6,508.5,520.9,512.1z M522.7,499.3c1.3-6.7,9.2-32.6,11.8-44c0.6,11.2,0.5,22.4-0.9,32
				c-1.2,8.1-6.1,16.5-12.3,24.3C521.5,508.6,521.9,503.7,522.7,499.3z M513.4,520.6c-3.7,3.8-7.5,7.4-11.2,10.6
				c-5-16.9-3.7-36.8-3.7-37l0-0.3c0.7-2.6,1.3-4.5,1.6-5.5c2.7-2.4,5.2-5,7.5-7.6c-3.1,12.1,0.2,27.9,0.2,27.9
				c-0.2-11.6,7.1-32.7,7.1-32.7s-1.3,6.3-3.2,22C510.3,509.5,512.3,517.3,513.4,520.6z M485.8,544.2c-0.5,0.4-1,0.7-1.4,1
				c-1.4-3-3.2-8.7-3.2-18c0-10.5,2.9-21.9,4.7-28.1c2.1-1.3,4.2-2.7,6.3-4.2c0.3-0.2,0.6-0.5,1-0.7
				C489.6,506.7,483.7,530.8,485.8,544.2z M493.7,513.2c0.6,6.8,1.8,14.5,4.2,21.6c-2.7,2.2-5.2,4.2-7.4,5.9
				C490.1,533.2,491.7,522.8,493.7,513.2z M451.6,511.7c5.1-0.5,10.3-1.6,15.6-3.4c0.7,6.1,3.7,26.8,14.5,38.8l-3,2
				C467.3,539.9,457.7,526.8,451.6,511.7z M481.5,551.4h2.2c0.1,0,1.7,0,4.3-0.3c1.4,2.5,2.8,4.8,4.2,6.8
				C488.6,556.1,485,553.9,481.5,551.4z M493.3,545.1c15.1-11.4,42-34.5,45.4-57.1c0.2-1.2,0.3-2.5,0.5-3.8
				c5-12.3,12.4-33.1,12-47.4c-0.6-21.4-6.1-31.4-6.1-31.4s2.9,26.5,0,38.1c-1.8,7.2-3.9,13.6-5.1,17.5c-0.5-15.4-2.4-31.1-4-43.2
				l0.1-1l-0.2,0c-0.2-1.2-0.3-2.4-0.5-3.6c-0.3-2.1-0.5-4-0.7-5.7c0.2,0.1,0.3,0.2,0.3,0.2l7.4,4.1l-3.9-7.5
				c-0.1-0.2-9.3-18.2-6.1-30.9c0.5-1.9,1.5-4.1,2.9-6.5c0,3.1,0.3,7.9,1.7,14.1c2.6,11.6,9.5,21.9,9.5,21.9s-1.9-8.2-3.4-15.3
				c-1.4-7.1,0-24,0-24l4.9,18.8l-1.3-21.5l6,23c0,0-1.3-10.3-2.4-19.2c-0.7-6.1,0-14,0.5-18.4c0.4-0.5,0.8-1,1.3-1.5
				c0.3-0.3,0.6-0.7,0.8-1c0,21.3,3.9,51.8,7.2,66.8c1.5,6.7,2.6,19.8,2,34.8c-2.2-0.6-3.8-0.6-3.9-0.6H556l-0.4,2.2
				c-1,5.7-6.6,39.3-10.5,65.1c-4.1,6.8-9.1,12.3-14.4,16.6l0,0l0,0C517.9,539.2,503,543.4,493.3,545.1z M515.5,552.8
				c-2.3-1.8-4.3-4-6.2-6.5c4-1.4,8.1-3.1,12.3-5.4c2,4.5,7.9,16.9,13.1,21.2c0,0-4.6-14.7-7.1-24.8c1.1-0.7,2.3-1.5,3.4-2.3
				c1.1,16.8,4.3,26.1,7.5,31.3C533.3,564.6,525.6,560.8,515.5,552.8z M547.1,567.8c-0.1,0-9.8-3.1-11.1-36.7
				c2.6-2.3,5.1-4.9,7.5-7.7c-1.3,9.5-2.2,16.6-2.1,18.5c0.1,2.2,2,8.2,4.6,15.6l0,0c0.3,1.4,1.1,5.3,2.2,10.5L547.1,567.8z
				 M410.5,860.6c-2.5,4-4.8,8.2-7,12.7c-6.9,14.2-11,27.8-13.3,36.6c-8.5-32.4-4.6-99.6-2.1-121.7c0.2-1.4,0.1-3.9,0-7
				c4-21.9,12-71.6,10.4-104.3l-11.1,94.5c-0.5-5.8-1.1-12.6-1.8-19.8c-2-21.3-4.4-45.5-3.9-58.9c0.9-25.2,15.3-60.6,40.1-76.7
				c18-11.6,54-17.9,80.3-22.5c11.7-2.1,21.9-3.8,27.5-5.6c10.6-3.4,17-7.6,20.5-10.6c4.2,19.5,10,46.6,11.1,51
				c1.2,4.7,3.7,7.5,6.5,10.5c1.8,2,3.9,4.3,5.9,7.5c2,3.2,10.4,11.6,22,23.4c5.5,5.6,14.5,14.6,22.6,23.1
				c-17.3-10.1-67.8-37.8-67.8-37.8c25.1,22.6,64,41.3,76.2,46.9c5.8,6.4,9.9,11.6,9.9,13.2c-0.3,2-8.3,49.1-27.4,95
				c-2.5,5.9-5,11.8-7.5,17.6c-2.6-0.2-6.1-0.8-9.1-2.6c-3.6-2.1-10.9-11.2-16.4-18.4c-7-20.3-14.4-44.5-15.8-57.2
				c-6.6-59.4-46.5-83.6-46.5-83.6l1,0.8c17.3,14,39.9,56.7,40.4,82.8c0,2.6,0.4,5.6,0.9,8.9c-12-24.8-57.3-81.5-57.3-81.5
				c8.7,14.4,44.3,69.1,59.8,92.9c4.6,17.8,12.8,39.6,18.9,55.7c1.6,4.3,3.2,8.5,4.4,11.8c-4.3-2.4-10-3.3-17.3-2.7
				c-7.9,0.7-21.4-3.5-35.7-7.9c-20.7-6.4-44.2-13.7-61.2-10.1c-22.8,4.9-42.3,19.9-57.1,43.6l-0.2,0.1L410.5,860.6z"/>
			<path class="st3" d="M624,357.8c-6.7,0.5-11.8,6.3-11.3,13c0.5,6.7,6.3,11.8,13,11.3c6.7-0.5,11.8-6.3,11.3-13
				C636.5,362.4,630.7,357.3,624,357.8z M625.5,379.5c-5.3,0.4-9.9-3.6-10.3-8.9c-0.4-5.3,3.6-9.9,8.9-10.3
				c5.3-0.4,9.9,3.6,10.3,8.9C634.8,374.6,630.8,379.2,625.5,379.5z"/>
			<path class="st3" d="M674.5,425.9c-2.4,2-3.7,5.5-3.7,5.5s1-1.6,2.3-0.8c1.3,0.8,5,4.2,8.4,4.2s4.5-1.2,4.5-1.2s1.3,4,7.7,3.1
				c0,0-1.6-0.1-3.1-1.5s-3.7-9-6.5-9.9C681.4,424.4,676.9,424,674.5,425.9z"/>
			<path class="st3" d="M696.6,424.4c4.5-1.3,6.1-3.7,2.1-2.3c-4,1.4-6.9,0-6.9,0l-5.3-2.2C686.5,419.8,692.1,425.6,696.6,424.4z"/>
			<path class="st3" d="M675.6,391.9c-3.6,14.7-0.1,21.7-0.1,21.7s-0.3-11,2.7-21.9c2.6-9.4,6.4-19.2,5-26.4
				c-2.4-12.4-13-26-13.4-26.6l-0.8-1c0,0,8.5,16.6,10.6,27.7C680.8,371.6,677.8,382.9,675.6,391.9z"/>
			<path class="st3" d="M609.4,315.6c-5.6,3.5-24.8,14.7-26,24.1l0.5,1.6c0,0,8.1-11.7,19.1-15.7c11-4,20.8-6.4,28.5-4.2
				c7.8,2.2,9.5,4.6,15.1,5.7c5.6,1.1,13.9,2.4,14.7,1.6c0,0-5.6-10.8-9.7-11.8c-4.1-1-6.2-0.4-13.5-1.6
				C630.7,314,615,312.2,609.4,315.6z"/>
			<path class="st3" d="M621,232.6c8.1-5.8,9-14,9-14s-6.1,9.7-16.3,14c-10.2,4.4-19.9,5.6-19.9,5.6S612.9,238.4,621,232.6z"/>
			<path class="st3" d="M698.5,443.2c-0.3,1.9-2.9,1.3-2.9,1.3s2.8,3.6,4.4,2.7s1.5-4.7,1.1-7.8c-0.2-1.3,0.1-3.7,0.5-6.1
				c0.9-1.2,2-2.3,2.5-2.3c1,0.1,1,1.8,2.6,2.2c1.5,0.4,6.3-0.4,8.1-0.2c1.8,0.2,4.4-0.9,3.1,1.5c0,0,2.9-0.6,3.2-3.6
				c0.3-2.9-3.9-6.1-7.7-6.9c-3.9-0.8-6.9,0.7-8,2c-0.8,0.9-2.2,3-3.2,4.8c0.5-2.4,1-4.4,1-4.4l0.4-2.7c0,0-1.1,0.8-2.6,4.7
				S698.9,441.3,698.5,443.2z"/>
			<path class="st3" d="M661.7,434.7c5.1,4.9,11.4,5.8,11.4,5.8s-6.1-3.9-9.2-7.7c-5.4-6.8,2.3-21.2,2.3-21.2
				S654.3,427.5,661.7,434.7z"/>
			<path class="st3" d="M626.8,367.7c-1.5,0.1-2.8-1-2.9-2.5c-0.1-0.8,0.2-1.5,0.7-2c-0.1,0-0.1,0-0.2,0c-3.8,0.3-6.6,3.5-6.3,7.3
				c0.3,3.8,3.5,6.6,7.3,6.3c3.8-0.3,6.6-3.5,6.3-7.3c-0.1-1.9-1-3.5-2.3-4.7C629.4,366.3,628.3,367.6,626.8,367.7z"/>
			<path class="st3" d="M560.4,262.8c0,0-3.7,4.1-3.2,16.4c0.4,12.3,0.6,26.7-3.7,34.9c0,0,4.9-6.2,6.9-16.8
				C562.3,286.7,558.9,269.9,560.4,262.8z"/>
			<path class="st3" d="M754,345.2c12.1,0,21.3,9.6,26.1,14c-2.3,3.3-6.4,8.6-11.3,11.8c-7.5,4.9-18.9,4.7-24.1,1.7
				c-5.2-3-17.2-6-17.2-6s18,9,23.4,10.5c5.4,1.5,14.8-0.2,20.7-3.7c3.9-2.3,9.2-8.3,12.3-11.9c5.3,1.4,11.2-3.2,11.2-3.2
				s-7.5-2.2-10.3-3.9l7.1-2.2l-8.8-2.6l4.1-3.2l-12.5-1.5l5.2-4.7l-8.6,1.7c0,0-8.4-1.7-15.3-1.7c-6.9,0-19.4,5.4-22.8,10.5
				s-10.8,15.7-10.8,15.7S739,345.2,754,345.2z"/>
			<path class="st3" d="M612.5,379.9c-5.1-2.9-9.6-7.8-12.1-11c4.5-4.8,13-15,25.1-15.8c15-1,33.1,19.3,33.1,19.3s-8-10-11.8-14.9
				c-3.8-4.9-16.6-9.4-23.5-8.9c-6.9,0.5-15.1,2.8-15.1,2.8l-8.7-1.1l5.5,4.4l-12.3,2.4l4.3,2.9l-8.6,3.2l7.2,1.7
				c-2.7,1.9-10,4.6-10,4.6s6.2,4.1,11.4,2.4c3.3,3.4,9,9,13.1,11c6,3,15.6,4.1,20.9,2.2c5.3-1.9,22.6-12.1,22.6-12.1
				s-11.8,3.8-16.7,7.2C631.7,383.3,620.4,384.3,612.5,379.9z"/>
			<path class="st3" d="M724.5,440c3.4-1.9,9.3-7.6,6.7-15c-2.7-7.8-6.8-9.1-6.8-9.1s2.6,3.7,5,10.6c1.8,5.3-6,14.2-6,14.2
				L724.5,440z"/>
			<path class="st3" d="M706.1,479c-1.8,0.4-4.3,1-8,1.4c-4.5,0.5-7.1-0.1-9.3-0.7c-2.4-0.6-4.7-1.1-8.1-0.1
				c-3.9,1.2-9,9.2-15.7,18.1c-3.5,4.6-8.9,3.3-8.9,3.3l4.2,2.7c2.7,4.2,7.6,16.2,11.4,20.9c5.2,6.4,15.3,13.6,23.2,14.5
				c0.9,0.1,1.8,0.2,2.8,0.2c7.8,0,19-3.4,25.1-10.8c4.9-5.9,10.4-20.3,12.9-25.7c0.1,0.1,5.9-0.8,5.9-0.8s-7.9-2.8-8.6-3.5
				c-3.6-4-9.9-14.5-18.7-19.2C711.3,477.8,709.1,478.3,706.1,479z M718.1,511.1c1.5,1.4,4.1,4,4.4,5.3c0.2,0.8,0.2,2.2,0.1,3.4
				c-1.4,2.1-2.8,3.9-4,5.4c-5.6,6.8-17.2,9.5-23.3,8.8c-6.3-0.7-15.3-7.1-19.8-12.6c-1.6-1.9-3.7-4.9-5.8-8
				c0.6-2.3,2.2-7.8,4.5-10.1c3-2.9,6.5-5.2,10.7-4.8s5.6,0.4,5.6,0.4s3.7,0.8,4,2.3c0.2,1.5,1,9,1,9s0.3-7.7,2.5-8.7
				c2.2-1,10.2-2.7,12.5-1.5s3.9,2.3,4.5,4C715.7,505.8,716.7,509.7,718.1,511.1z M698.7,492.2c-8.2,0.8-17.5-3.9-19.5-5.8
				c1.2-1,2.2-1.7,2.9-1.9c2-0.6,3.3-0.3,5.4,0.2c2.5,0.6,5.7,1.4,11.1,0.8c4-0.4,6.7-1.1,8.6-1.5c2.7-0.6,3.4-0.7,4.5-0.1
				c1,0.6,2,1.2,3,1.8C712.7,487.2,706.2,491.5,698.7,492.2z"/>
			<path class="st3" d="M755.9,374.1c6.7,0,12.2-5.5,12.2-12.2s-5.5-12.2-12.2-12.2s-12.2,5.5-12.2,12.2S749.2,374.1,755.9,374.1z
				 M755.9,352.3c5.3,0,9.6,4.3,9.6,9.6c0,5.3-4.3,9.6-9.6,9.6c-5.3,0-9.6-4.3-9.6-9.6C746.3,356.6,750.6,352.3,755.9,352.3z"/>
			<path class="st3" d="M755.9,368.8c3.8,0,6.8-3.1,6.8-6.8c0-3.8-3.1-6.8-6.8-6.8c-0.1,0-0.1,0-0.2,0c0.5,0.5,0.8,1.2,0.8,2
				c0,1.5-1.2,2.7-2.7,2.7c-1.5,0-2.7-1.2-2.7-2.7c-1.2,1.2-2,2.9-2,4.8C749.1,365.7,752.2,368.8,755.9,368.8z"/>
		</g>
	</g>
</g>
<g id="text">
</g>
</svg>
